<svg width="635" height="644" viewBox="0 0 635 644" fill="none" xmlns="http://www.w3.org/2000/svg">
  <path d="M420.181 643.244C399.979 643.244 381.837 635.697 365.255 628.796C349.432 622.213 334.427 615.76 319.02 616.239C304.645 616.458 289.973 620.807 274.436 625.416C244.764 634.218 211.119 644.187 170.103 628.072C117.753 607.494 93.436 583.203 66.868 545.583C-19.8147 422.834 -22.684 236.37 60.9669 161.903C99.5602 127.543 151.27 112.706 202.794 121.163C234.955 126.449 277.007 136.007 309.747 152.694C305.783 131.62 294.695 111.62 285.534 103.516C249.075 71.3029 226.503 64.2135 211.56 59.5215L205.602 57.6101C198.753 55.3237 195.05 47.9278 197.336 41.0834C199.612 34.2345 207.034 30.5574 213.863 32.8178L219.389 34.5886C235.405 39.6146 262.201 48.0366 302.826 83.9273C308.889 89.2866 314.915 97.0679 320.196 106.334C327.743 85.3393 340.832 67.4699 362.665 44.7033C398.894 6.92726 460.498 0.323258 463.097 0.063258C467.217 -0.337782 471.222 1.18305 474.003 4.19873C476.79 7.21433 477.998 11.3654 477.258 15.3966C476.618 18.9435 464.909 79.5059 413.285 132.23C431.332 127.871 449.342 124.709 465.296 123.944C503.249 122.105 543.65 135.777 576.072 161.397C656.848 225.194 653.041 426.264 568.791 545.57C538.244 588.825 518.973 612.597 447.269 638.45C437.853 641.856 428.827 643.237 420.187 643.237L420.181 643.244ZM319.905 590.099C340.28 590.099 358.077 597.505 375.291 604.672C397.379 613.854 416.447 621.803 438.421 613.88C502.995 590.599 518.515 571.5 547.457 530.516C629.597 414.188 624.004 232.57 559.884 181.916C532.338 160.156 498.4 148.599 466.556 150.062C428.223 151.9 372.072 170.302 338.124 184.275C335.114 185.619 332.046 186.916 328.911 188.181C325.192 189.681 321.166 189.348 317.869 187.577C316.583 187.176 315.338 186.567 314.182 185.739C290.974 169.171 249.911 155.4 198.546 146.947C154.852 139.77 111.019 152.322 78.3377 181.42C5.00969 246.696 9.90035 419.607 88.2074 530.513C112.385 564.748 133.166 585.477 179.65 603.753C212.295 616.582 238.858 608.712 266.994 600.363C283.541 595.456 300.645 590.378 318.609 590.102C319.046 590.108 319.479 590.097 319.906 590.097L319.905 590.099ZM446.151 29.7389C427.552 34.2389 399.796 43.7602 381.525 62.8175C349.629 96.0829 339.9 114.656 337.651 155.536C406.973 120.244 435.609 60.2335 446.151 29.7389ZM77.5106 319.459C77.2919 319.459 77.0835 319.459 76.87 319.443C69.6564 319.094 64.1044 312.969 64.4429 305.755C66.0107 273.438 78.6096 245.343 99.9216 226.63C118.26 210.542 141.558 202.766 165.391 204.703C172.584 205.292 177.933 211.594 177.355 218.791C176.766 225.984 170.438 231.276 163.267 230.755C146.496 229.375 130.131 234.901 117.168 246.276C101.22 260.276 91.7665 281.85 90.5479 307.026C90.2145 314.015 84.4333 319.458 77.5115 319.458L77.5106 319.459Z" fill="#E43B3B"/>
</svg>
