<svg width="629" height="715" viewBox="0 0 629 715" fill="none" xmlns="http://www.w3.org/2000/svg">
  <path d="M328.667 0.802658H328.51C328.203 0.708908 327.891 0.63599 327.573 0.58391C327.068 0.479743 326.552 0.432871 326.037 0.448497C325.771 0.448497 325.505 0.469329 325.24 0.500579C324.563 0.599538 323.901 0.797459 323.281 1.08913C323.177 1.08913 323.068 1.15684 322.964 1.20892C322.307 1.55267 321.703 1.99017 321.182 2.51621C321.089 2.62038 321.042 2.74017 320.958 2.84433L320.854 2.91725C319.844 4.15684 318.568 5.90165 316.927 8.17245C309.521 18.5214 301.515 28.4271 292.948 37.8338C58.0018 29.2556 1.22845 233.994 0.681783 236.074C0.166156 238.063 0.546375 240.178 1.72867 241.866C2.90575 243.548 4.76507 244.626 6.812 244.819C25.4787 246.553 43.3227 247.423 60.3387 247.423C144.443 247.423 208.219 226.256 250.339 184.245C285.776 147.715 304.839 98.3387 303.145 47.4721C312.906 36.6909 319.479 28.332 324.099 22.112C347.869 97.0441 352.583 176.725 337.801 253.939C323.02 331.152 289.217 403.459 239.452 464.325C223.307 438.727 178.359 382.94 107.629 414.075C86.1027 423.757 67.6507 439.157 54.2693 458.601C28.2227 495.82 -4.85067 570.601 66.16 652.895C93.1387 685.228 131.029 706.556 172.665 712.853C179.78 713.827 186.952 714.312 194.129 714.312C229.651 714.312 274.545 702.104 316.291 655.14C316.525 654.822 320.754 649.025 326.285 639.676C345.707 669.373 376.301 690.692 417.624 702.993L417.629 702.988C434.859 708.144 452.744 710.79 470.733 710.837C494.488 710.977 517.984 705.91 539.567 695.988C575.484 679.737 603.531 649.966 617.613 613.144C628.244 585.977 631.493 556.482 627.04 527.654C622.905 499.28 611.176 461.79 578.51 444.316C552.28 430.316 517.619 432.493 475.546 450.383C482.827 346.41 487.692 60.8632 328.666 0.809908L328.667 0.802658ZM240.307 174.469C194.02 220.532 118.859 239.803 16.6666 231.615C28.9114 195.213 89.9533 51.2013 279.867 51.588V51.5932C242.897 87.9839 203.064 121.348 160.757 151.364C159.257 152.463 158.257 154.109 157.971 155.942C157.69 157.781 158.143 159.65 159.242 161.15C161.523 164.27 165.903 164.952 169.028 162.666C211.549 132.453 251.621 98.9259 288.867 62.4005C286.799 104.406 269.539 144.229 240.304 174.463L240.307 174.469ZM338.213 20.2827C473.867 89.048 468.421 352.856 461.468 450.176C444.875 442.103 409.828 428.837 374.76 439.442H374.765C348.307 448.389 326.787 467.972 315.396 493.472C295.896 481.832 274.208 474.332 251.688 471.446C302.125 409.175 336.417 335.419 351.511 256.712C366.604 178.01 362.037 96.7923 338.214 20.2856L338.213 20.2827ZM305.333 646.349C268.281 688.016 224.219 705.693 174.527 698.933C136.292 693.079 101.527 673.433 76.7866 643.699C11.9586 568.548 42.0573 500.472 65.7555 466.565V466.571C77.6617 449.211 94.0941 435.456 113.271 426.789C183.026 396.081 224.574 465.268 232.339 479.763L232.397 479.846C232.397 479.94 232.548 479.987 232.6 480.07V480.075C232.975 480.778 233.47 481.408 234.063 481.94C234.178 482.033 234.313 482.07 234.428 482.153C234.652 482.299 234.881 482.429 235.121 482.544C235.782 482.934 236.506 483.205 237.256 483.351C237.423 483.351 237.553 483.507 237.73 483.528H237.735C263.334 485.341 288.115 493.309 309.975 506.757C305.512 524.023 294.893 577.897 318.178 625.451C314.257 632.628 309.97 639.601 305.335 646.347L305.333 646.349ZM571.853 456.656C599.348 471.364 609.484 504.468 613.145 529.661H613.14C617.249 556.057 614.296 583.063 604.572 607.943C591.781 641.421 566.291 668.5 533.64 683.292C498.318 698.964 458.49 701.193 421.64 689.563C379.26 676.933 349.187 654.36 332.28 622.459C307.666 575.969 321.036 515.771 324.442 506.803C337.51 478.016 355.754 459.865 378.806 452.865L378.811 452.86C386.379 450.61 394.243 449.491 402.144 449.537C423.926 450.324 445.18 456.444 464.04 467.365C464.108 467.365 464.191 467.365 464.254 467.433V467.428C465.145 467.959 466.139 468.277 467.165 468.365H467.28H467.66C468.624 468.381 469.582 468.193 470.462 467.813C470.535 467.813 470.629 467.813 470.707 467.766C513.472 447.365 547.519 443.63 571.852 456.657L571.853 456.656Z" fill="#E43B3B"/>
</svg>
