<svg width="713" height="627" viewBox="0 0 713 627" fill="none" xmlns="http://www.w3.org/2000/svg">
  <path d="M675.813 255.067C708.397 150.083 644.475 97.8133 635.652 91.2533C622.188 77.7893 619.475 48.264 619.589 37.9667C619.589 34.9145 618.006 32.0812 615.292 30.4978C612.579 29.029 609.298 29.029 606.693 30.7218L597.532 36.4926C598.1 34.7947 598.324 32.8729 597.756 31.0603C596.287 26.6489 591.423 24.2739 587.121 25.7426L552.047 37.5082C548.427 38.753 546.052 42.2582 546.276 46.1071L549.782 92.7165C539.829 123.487 525.574 150.976 507.584 174.738C498.871 157.992 485.522 144.983 468.33 138.535C448.532 131.066 426.247 133.217 405.428 144.077C404.861 140.004 403.959 136.046 402.824 132.196C437.553 127.332 464.48 97.5765 464.48 61.4885C464.48 56.8478 460.746 53.1188 456.11 53.1188C424.318 53.1188 397.282 74.0454 388.121 102.785C382.236 95.2073 375.34 88.3067 367.08 82.7587C363.231 80.1546 358.028 81.1754 355.429 85.0192C352.825 88.8681 353.845 94.0713 357.689 96.6702C373.752 107.53 384.501 124.16 388.236 142.717C370.361 134.118 351.58 131.967 334.272 136.608L200.432 2.88754C197.265 -0.279124 191.718 -0.279124 188.551 2.88754C155.067 36.3715 133.343 78.2316 124.858 124.617C121.577 123.034 117.957 121.903 114.337 121.112C112.415 108.778 105.514 97.581 94.9933 90.4557C91.1444 87.8515 85.9412 88.8723 83.3422 92.7161C80.7381 96.565 81.7589 101.768 85.6026 104.367C91.5974 108.44 95.6704 114.435 97.3682 121.222C89.337 122.92 82.2069 126.654 76.3269 132.31C67.8425 140.571 63.2018 151.545 63.2018 163.31V191.029C63.2018 195.779 61.1654 200.305 57.6602 203.019C41.0296 216.253 30.7336 235.488 28.5869 256.305C12.2949 260.717 0.190918 275.54 0.190918 293.185C0.190918 314.341 17.3882 331.535 38.5402 331.535H43.2902L94.4263 580.201C99.4055 606.785 122.708 626.133 149.749 626.133H563.362C590.398 626.133 613.706 606.789 618.685 580.316L669.936 331.543H674.576C695.732 331.543 712.926 314.345 712.926 293.193C713.035 272.491 696.404 255.631 675.816 255.068L675.813 255.067ZM446.84 70.5467C442.991 93.2867 425.007 111.276 402.152 115.235C406.11 92.4947 424.1 74.396 446.84 70.5467ZM658.053 254.84H548.543C578.521 215.132 596.512 168.408 602.168 115.453L610.652 118.62C611.668 118.959 612.574 119.188 613.595 119.188C613.934 119.188 614.163 119.073 614.501 119.073C614.84 119.073 615.069 118.959 615.408 118.959C616.652 118.735 617.897 118.281 618.913 117.375L630.225 108.214C645.043 121.115 687.356 167.156 658.053 254.827V254.84ZM618.121 96.2267L612.012 101.206L601.491 97.2474L589.84 61.0448L603.643 52.4458C605.112 64.8885 608.731 82.7627 618.121 96.2267ZM585.537 43.8467L575.24 50.2945C571.959 52.3309 570.49 56.2893 571.735 60.0237L582.141 92.3784L575.694 95.4305L566.418 89.0972L563.59 51.1958L585.537 43.8467ZM562.459 106.748L570.266 111.951C571.625 112.857 573.318 113.42 575.016 113.42C576.261 113.42 577.506 113.196 578.636 112.628L585.651 109.232C580.563 165.456 560.875 214.446 527.047 254.832H515.735C520.823 232.999 520.261 211.614 514.943 192.947C535.079 168.182 551.031 139.218 562.459 106.75L562.459 106.748ZM393.219 165.123C393.557 165.347 393.896 165.461 394.234 165.69C394.573 165.805 394.802 166.029 395.141 166.143C396.047 166.482 397.062 166.711 398.083 166.711C399.099 166.711 400.12 166.487 401.026 166.143C401.364 166.029 401.594 165.805 401.932 165.69C402.271 165.466 402.609 165.352 402.948 165.123C422.406 151.32 444.13 147.363 462.453 154.263C495.26 166.597 510.308 210.149 498.202 254.951H297.962C285.858 210.149 301.015 166.706 333.826 154.263C352.149 147.248 373.758 151.321 393.217 165.123H393.219ZM315.385 144.759C284.047 164.556 269.683 209.019 280.541 254.837H211.984C172.839 192.16 180.307 110.477 229.635 55.8373L317.197 143.4C316.63 143.858 316.062 144.42 315.385 144.759ZM194.563 20.7693L217.756 43.9627C165.261 101.66 155.193 186.843 192.412 254.843H184.042C181.667 234.592 171.485 216.149 155.422 203.255C151.688 200.312 149.537 195.786 149.537 191.036V164.791C149.537 154.27 145.802 144.655 139.693 136.963C145.912 93.0665 164.693 53.1292 194.562 20.7745L194.563 20.7693ZM68.1934 216.263C75.7715 210.268 80.0736 201.101 80.0736 191.148V163.429C80.0736 156.19 82.9018 149.512 88.1048 144.539C93.3079 139.559 100.094 136.961 107.339 137.07C121.479 137.523 132.907 149.966 132.907 164.898V191.143C132.907 201.096 137.319 210.263 145.012 216.487C157.116 226.216 164.924 239.903 167.184 254.951L45.793 254.956C48.0586 239.68 55.9743 225.992 68.1934 216.263ZM602.287 577.156C598.782 595.823 582.489 609.401 563.484 609.401L149.871 609.396C130.865 609.396 114.573 595.817 111.068 577.041L60.4947 331.655H652.855L602.287 577.156ZM674.688 314.796H38.6614C26.7811 314.796 17.1667 305.181 17.1667 293.301C17.1667 282.103 25.7656 273.051 36.74 271.921H37.1931C37.3077 271.921 38.5525 271.807 38.891 271.697H674.691C686.571 271.697 696.186 281.312 696.186 293.192C696.175 305.067 686.561 314.796 674.68 314.796L674.688 314.796Z" fill="#E43B3B"/>
  <path d="M205.747 557.36C222.716 557.36 236.632 543.557 236.632 526.475V414.475C236.632 397.505 222.829 383.589 205.747 383.589C188.664 383.589 174.861 397.392 174.861 414.475V526.475C174.861 543.444 188.664 557.36 205.747 557.36ZM191.716 414.48C191.716 406.787 198.049 400.453 205.743 400.453C213.435 400.453 219.769 406.787 219.769 414.48V526.48C219.769 534.173 213.436 540.507 205.743 540.507C198.05 540.507 191.716 534.173 191.716 526.48V414.48Z" fill="#E43B3B"/>
  <path d="M306.32 557.36C323.289 557.36 337.205 543.557 337.205 526.475V414.475C337.205 397.505 323.403 383.589 306.32 383.589C289.237 383.589 275.435 397.392 275.435 414.475V526.475C275.435 543.444 289.352 557.36 306.32 557.36ZM292.293 414.48C292.293 406.787 298.627 400.453 306.32 400.453C314.013 400.453 320.347 406.787 320.347 414.48V526.48C320.347 534.173 314.013 540.507 306.32 540.507C298.627 540.507 292.293 534.173 292.293 526.48V414.48Z" fill="#E43B3B"/>
  <path d="M407.013 557.36C423.983 557.36 437.899 543.557 437.899 526.475V414.475C437.899 397.505 424.096 383.589 407.013 383.589C390.044 383.589 376.128 397.392 376.128 414.475V526.475C376.128 543.444 389.931 557.36 407.013 557.36ZM392.987 414.48C392.987 406.787 399.32 400.453 407.013 400.453C414.706 400.453 421.04 406.787 421.04 414.48V526.48C421.04 534.173 414.707 540.507 407.013 540.507C399.321 540.507 392.987 534.173 392.987 526.48V414.48Z" fill="#E43B3B"/>
  <path d="M507.587 557.36C524.556 557.36 538.472 543.557 538.472 526.475V414.475C538.472 397.505 524.669 383.589 507.587 383.589C490.617 383.589 476.701 397.392 476.701 414.475V526.475C476.701 543.444 490.619 557.36 507.587 557.36ZM493.56 414.48C493.56 406.787 499.893 400.453 507.587 400.453C515.28 400.453 521.613 406.787 521.613 414.48V526.48C521.613 534.173 515.28 540.507 507.587 540.507C499.893 540.507 493.56 534.173 493.56 526.48V414.48Z" fill="#E43B3B"/>
  <path d="M223.053 132.32C221.808 136.846 224.522 141.372 229.048 142.617L244.772 146.804C245.449 147.028 246.241 147.143 246.923 147.143C250.658 147.143 254.048 144.653 255.069 140.919C256.314 136.393 253.6 131.867 249.074 130.622L233.35 126.435C228.824 125.195 224.298 127.794 223.053 132.32Z" fill="#E43B3B"/>
  <path d="M244.787 187.307L229.063 191.494C224.537 192.739 221.937 197.265 223.068 201.791C224.083 205.525 227.479 208.015 231.214 208.015C231.891 208.015 232.682 207.9 233.365 207.677L249.089 203.489C253.615 202.244 256.214 197.718 255.084 193.192C253.834 188.775 249.313 186.062 244.787 187.307Z" fill="#E43B3B"/>
</svg>
