<svg width="677" height="677" viewBox="0 0 677 677" fill="none" xmlns="http://www.w3.org/2000/svg">
  <path d="M121.627 287.387C115.038 283.272 106.34 285.288 102.215 291.887C84.7987 319.808 74.272 351.897 71.772 384.699C71.1783 392.449 76.9908 399.22 84.7512 399.813C85.1158 399.839 85.4752 399.855 85.8293 399.855C93.1263 399.855 99.2987 394.23 99.86 386.834C102.011 358.553 111.094 330.881 126.115 306.804C130.234 300.205 128.229 291.512 121.625 287.388L121.627 287.387Z" fill="#E43B3B"/>
  <path d="M196.507 242.267C203.439 238.735 206.199 230.256 202.668 223.324C199.132 216.392 190.653 213.605 183.725 217.162C174.507 221.855 165.553 227.308 157.111 233.36C150.788 237.891 149.345 246.698 153.876 253.021C158.382 259.297 167.158 260.818 173.538 256.256C180.824 251.026 188.553 246.318 196.507 242.267Z" fill="#E43B3B"/>
  <path d="M676.733 443.013C677.348 434.873 670.905 427.873 662.687 427.873H662.671H551.207C552.092 418.816 552.697 409.655 552.697 400.379C552.697 279.821 474.879 177.339 366.937 139.832C375.322 135.749 383.311 130.551 390.239 123.624C428.39 85.4787 418.177 16.4733 417.718 13.556C416.775 7.48826 412.02 2.73306 405.958 1.7956C403.056 1.35289 334.046 -8.87107 295.89 29.2743C288.192 36.9721 282.535 45.9463 278.296 55.3569C265.39 29.9196 245.542 13.5596 231.406 7.86759C220.01 3.27386 207.051 8.78947 202.452 20.1853C197.859 31.5812 203.374 44.5453 214.77 49.1387C229.354 56.1127 239.051 61.0397 250.926 82.92C256.535 93.5293 261.697 107.691 264.953 124.972C118.153 131.186 0.552612 252.16 0.552612 400.385C0.552612 552.572 124.433 676.399 276.699 676.399C302.538 676.399 328.033 672.711 352.611 665.685C352.846 665.758 353.085 665.81 353.32 665.883C376.237 672.701 404.413 676.456 425.112 676.456C557.185 676.451 666.978 573.32 676.738 443.016L676.733 443.013ZM425.067 648.213C313.353 648.213 218.733 565.344 203.253 456.053H233.196C246.696 551.376 328.352 622.52 425.089 622.52H425.105H425.11H425.115C521.73 622.504 603.355 551.651 617.049 456.053H646.991C631.303 565.308 536.741 648.213 425.071 648.213H425.067ZM325.801 561.192L411.02 475.973V593.713C378.905 591.015 350.28 579.505 325.801 561.192ZM439.197 475.973L524.504 561.276C499.64 579.869 470.135 591.063 439.197 593.692V475.973ZM304.677 542.468C281.86 518.359 266.896 488.432 261.511 456.052H391.095L304.677 542.468ZM545.544 542.478L459.112 456.052H588.716C583.268 488.448 568.3 518.385 545.544 542.478ZM315.797 49.1984C336.365 28.6304 372.735 27.7144 390.839 28.6677C391.818 46.7464 390.875 83.1411 370.308 103.709C349.715 124.313 313.24 125.236 295.168 124.236C294.043 103.621 296.496 68.5011 315.799 49.1997L315.797 49.1984ZM276.688 648.225C139.955 648.225 28.7146 537.048 28.7146 400.385C28.7146 263.732 139.955 152.545 276.688 152.545C413.341 152.545 524.515 263.722 524.515 400.385C524.515 409.672 524.02 418.874 523.041 427.88H187.574H187.538C179.376 427.88 172.887 434.817 173.491 443.005C179.954 530.797 231.903 606.765 305.964 646.498C296.287 647.644 286.511 648.212 276.683 648.212L276.688 648.225Z" fill="#E43B3B"/>
  <path d="M377.12 230.16C377.12 237.978 370.781 244.316 362.964 244.316C355.146 244.316 348.808 237.977 348.808 230.16C348.808 222.342 355.147 216.004 362.964 216.004C370.782 216.004 377.12 222.342 377.12 230.16Z" fill="#E43B3B"/>
  <path d="M420.347 315.187C428.128 315.187 434.503 308.812 434.503 301.031C434.503 293.25 428.128 286.875 420.347 286.875C412.566 286.875 406.196 293.25 406.196 301.031C406.196 308.812 412.566 315.187 420.347 315.187Z" fill="#E43B3B"/>
  <path d="M437.96 386.067C445.741 386.067 452.116 379.692 452.116 371.911C452.116 364.13 445.741 357.755 437.96 357.755C419.247 357.755 419.252 386.067 437.96 386.067Z" fill="#E43B3B"/>
  <path d="M363.627 371.92C363.627 364.139 357.252 357.764 349.471 357.764C341.689 357.764 335.32 364.139 335.32 371.92C335.32 390.617 363.627 390.649 363.627 371.92Z" fill="#E43B3B"/>
  <path d="M349.467 305.067C357.248 305.067 363.623 298.692 363.623 290.911C363.623 283.129 357.248 276.755 349.467 276.755C341.686 276.755 335.316 283.13 335.316 290.911C335.316 298.687 341.686 305.067 349.467 305.067Z" fill="#E43B3B"/>
</svg>
