<svg width="722" height="713" viewBox="0 0 722 713" fill="none" xmlns="http://www.w3.org/2000/svg">
  <path d="M671.96 437.16C671.523 436.691 630.116 390.212 635.157 340.748C635.501 337.826 642.996 268.789 603.204 231.207C585.22 214.223 560.673 207.097 530.745 208.9C532.303 188.707 539.053 151.593 568.141 141.916C574.673 139.77 578.188 132.708 576.042 126.203C573.897 119.671 566.834 116.062 560.297 118.333C546.704 122.843 536.776 130.994 529.062 140.546C522.901 120.853 512.98 105.453 498.478 95.6248C469.765 76.1195 434.978 83.677 425.338 86.3227C411.776 84.953 400.573 73.1612 400.478 73.0675C397.025 69.2706 391.614 68.0259 386.822 69.8956C382.067 71.7602 378.89 76.3331 378.89 81.4998C378.89 121.541 391.177 152 415.354 171.969C440.77 192.969 473.594 197.385 496.646 197.385C500.349 197.385 503.771 197.26 506.912 197.073C506.323 201.302 505.948 205.255 505.698 208.708C473.501 205.844 447.865 213.375 428.949 231.203C389.126 268.787 396.626 337.823 396.965 340.557C398.986 360.563 393.418 380.005 386.418 395.593C386.355 395.562 386.293 395.5 386.23 395.437C385.793 394.906 341.028 344.754 346.501 291.15C346.876 288.041 354.871 214.369 312.433 174.296C293.152 156.072 266.616 148.572 234.225 150.717C235.689 129.097 242.751 87.6238 275.168 76.8265C281.673 74.6494 285.22 67.6182 283.043 61.0865C280.892 54.5865 273.86 51.0709 267.297 53.2167C251.584 58.4407 240.385 68.2114 231.953 79.6287C223.433 51.3781 210.677 31.4674 193.593 20.7074C177.853 10.8429 159.681 8.97821 139.583 15.1345C138.932 15.322 137.093 15.9418 136.505 16.223C115.755 26.5564 95.5619 5.27515 94.6926 4.37409C91.2082 0.639686 85.7342 -0.57378 81.0046 1.29595C76.2754 3.16049 73.1296 7.70222 73.1296 12.8012C73.1296 55.5145 86.1974 87.9985 111.958 109.274C139.026 131.681 173.994 136.378 198.603 136.378C203.082 136.378 207.129 136.222 210.801 135.972C210.056 141.259 209.494 146.3 209.243 150.472C174.587 147.144 146.894 155.139 126.613 174.306C84.1755 214.374 92.1702 288.046 92.5142 290.967C97.9568 344.196 54.0302 393.978 54.3115 393.978C-5.45383 440.456 0.23817 521.535 0.551503 525.546C8.67124 589.076 31.4728 635.182 68.2808 662.679C98.9582 685.543 131.5 689.372 149.822 689.372C158.411 689.372 163.885 688.534 164.567 688.409C164.849 688.377 165.036 688.19 165.281 688.127C165.531 688.065 165.75 688.127 165.995 688.065C166.583 687.877 225.355 670.956 272.301 687.815C272.739 687.971 273.171 687.94 273.609 688.065C273.921 688.127 274.197 688.346 274.51 688.409C275.161 688.534 280.64 689.372 289.255 689.372C304.968 689.372 331.13 686.45 357.542 671.294C390.271 706.638 430.126 712.236 450.938 712.236C459.057 712.236 464.287 711.46 465 711.335C465.282 711.304 465.5 711.116 465.745 711.054C465.964 710.991 466.183 711.054 466.396 710.991C466.927 710.804 521.245 695.033 564.833 710.741C565.271 710.898 565.703 710.866 566.141 710.991C566.484 711.054 566.729 711.273 567.042 711.335C567.693 711.46 572.828 712.236 580.886 712.236C598.12 712.236 628.64 708.658 657.386 687.19C691.823 661.46 713.135 618.278 720.76 558.294C721.115 555.195 726.464 479.252 671.958 437.158L671.96 437.16ZM431.133 152.707C418.066 141.847 409.664 126.389 405.936 106.54C411.941 109.123 418.847 111.05 426.405 111.269C427.744 111.144 429.327 111.082 430.697 110.618C431.01 110.524 461.994 100.878 484.489 116.154C499.109 126.076 507.853 144.774 510.562 171.81C493.354 173.331 456.333 173.613 431.136 152.706L431.133 152.707ZM127.707 90.0132C113.144 77.9455 103.904 60.6119 100.045 38.2786C112.681 44.2786 129.196 47.5807 146.9 38.9296C155.207 36.3463 167.744 33.8567 180.343 41.7941C196.025 51.6848 207.597 75.4248 213.947 110.737C195.436 112.351 155.176 112.789 127.707 90.0132ZM278.56 663.853C226.044 645.932 166.029 662.171 159.872 663.978C156.263 664.447 118.247 668.957 83.1534 642.728C51.9507 619.457 32.4707 578.952 25.32 523.014C25.2575 522.301 20.5596 451.738 71.18 412.165C73.3259 409.8 123.915 353.394 117.259 288.28C117.191 287.629 110.253 223.973 143.696 192.368C159.717 177.217 183.519 172.081 213.977 176.409C215.597 176.909 217.274 177.091 219.05 176.909H219.269H219.457C219.582 176.909 219.675 176.94 219.8 176.909C220.019 176.878 220.175 176.878 220.389 176.846C222.04 176.971 223.654 176.878 225.212 176.378C255.633 172.143 279.342 177.242 295.3 192.336C328.68 223.758 321.868 287.659 321.773 288.472C315.148 353.399 365.669 409.806 369.404 413.603C418.497 451.775 413.768 522.306 413.8 522.4C406.643 578.775 387.264 619.124 356.273 642.458C320.065 669.734 279.341 664.009 278.56 663.853ZM696.107 555.807C689.45 608.041 671.56 645.468 642.877 667.031C609.528 692.167 572.071 686.973 571.132 686.785C522.195 670.233 466.444 685.166 460.345 686.879C456.861 687.41 412.809 692.108 377.652 656.108C410.163 628.139 430.944 584.676 438.507 524.942C438.757 521.957 443.142 459.39 405.095 413.655C415.142 393.868 424.663 367.082 421.679 337.868C421.616 337.28 415.33 278.196 446.069 249.202C460.845 235.327 482.689 230.628 510.872 234.614C512.304 235.051 513.794 235.176 515.32 235.051C515.445 235.051 515.57 235.051 515.695 235.082C515.789 235.082 515.882 235.051 515.976 235.082C516.164 235.082 516.32 235.114 516.476 235.082C516.789 235.02 517.065 235.051 517.346 234.989C518.778 235.02 520.148 235.02 521.513 234.582C549.513 230.692 571.382 235.327 586.039 249.17C616.779 278.134 610.493 337.249 610.43 337.962C604.206 398.754 651.498 451.55 655.107 455.249C700.435 490.536 696.08 555.776 696.107 555.807Z" fill="#E43B3B"/>
  <path d="M161.933 598.093C147.251 598.682 135.86 594.296 126.777 584.563C99.6467 555.536 100.704 485.943 103.381 461.547C104.126 454.703 99.2147 448.573 92.3658 447.828C85.6783 446.864 79.3918 451.963 78.6471 458.844C78.1783 462.859 68.0689 558.213 108.574 601.577C121.891 615.828 138.907 623.046 159.194 623.046C160.47 623.046 161.715 623.015 162.991 622.953C169.866 622.64 175.189 616.854 174.876 609.979C174.569 603.093 168.808 598.307 161.933 598.088L161.933 598.093Z" fill="#E43B3B"/>
  <path d="M630.867 476.293C624.054 477.132 619.231 483.387 620.101 490.2C624.054 521.278 625.981 606.741 588.148 628.36C582.174 631.782 580.09 639.375 583.512 645.344C585.814 649.391 590.012 651.63 594.34 651.63C596.424 651.63 598.57 651.068 600.502 649.979C660.423 615.724 645.455 492.272 644.805 487.019C643.904 480.175 637.497 475.165 630.867 476.285L630.867 476.293Z" fill="#E43B3B"/>
</svg>
