<svg width="659" height="735" viewBox="0 0 659 735" fill="none" xmlns="http://www.w3.org/2000/svg">
  <path fill-rule="evenodd" clip-rule="evenodd" d="M243.773 215.693C248.023 216.527 273.409 221.105 304.096 219.146C365.899 215.131 414.591 161.886 414.945 97.8918C415.055 79.5064 418.565 59.2984 426.268 33.4598C404.946 26.8139 353.924 15.3558 304.732 37.668C260.139 57.9027 226.92 101.037 206.003 165.84C195.706 197.7 237.935 213.663 243.774 215.695M288.378 244.132C259.836 244.132 239.039 239.736 237.998 239.502C211.691 231.069 168.044 203.71 182.695 158.314C205.878 86.5484 243.616 38.4284 294.878 15.2604C368.946 -18.2036 443.198 13.276 446.318 14.651C452.099 17.1562 455.021 23.6458 453.088 29.6457C443.75 58.5577 439.536 79.6564 439.427 98.0417C439 174.802 380.255 238.748 305.694 243.588C299.699 243.989 293.897 244.14 288.387 244.14" fill="#E43B3B"/>
  <path fill-rule="evenodd" clip-rule="evenodd" d="M257.84 660.974C256.434 660.974 255.012 660.729 253.606 660.213C251.559 659.468 203.054 641.338 155.324 601.609C91.1362 548.193 59.7042 481.249 64.4389 408.036C67.5378 360.202 96.6575 318.672 138.632 302.244C144.934 299.77 152.023 302.89 154.482 309.197C156.945 315.473 153.846 322.571 147.544 325.057C114.393 338.02 91.3561 371.218 88.8721 409.614C78.6429 567.801 260.245 636.574 262.072 637.254C268.416 639.593 271.655 646.619 269.322 652.973C267.51 657.915 262.822 660.978 257.838 660.978" fill="#E43B3B"/>
  <path fill-rule="evenodd" clip-rule="evenodd" d="M522.027 293.52C495.073 293.52 469.537 305.124 451.157 325.957C426.199 354.244 406.293 393.952 391.996 444.004C391.433 445.764 350.184 571.733 388.939 625.444C400.236 641.116 417.408 648.741 441.439 648.741C447.423 649.059 571.012 654.872 619.025 531.829C640.984 475.548 639.416 413.209 614.739 360.803C610.687 352.193 606.197 344.141 601.384 336.86V336.844C584.702 311.542 558.187 295.828 528.65 293.762C526.436 293.6 524.233 293.527 522.03 293.527M445.223 673.287C441.869 673.287 440.744 673.178 440.582 673.199C409.369 673.199 385.061 661.938 369.061 639.745C323.034 575.876 366.733 442.439 368.618 436.772C383.774 383.699 405.416 340.793 432.796 309.767C457.769 281.455 493.29 266.688 530.364 269.324C567.577 271.944 600.905 291.647 621.828 323.376C627.276 331.626 632.343 340.709 636.885 350.381C664.412 408.84 666.213 478.22 641.838 540.715C592.707 666.616 470.371 673.277 445.225 673.277" fill="#E43B3B"/>
  <path fill-rule="evenodd" clip-rule="evenodd" d="M382.2 648.733C333.752 648.733 289.673 623.687 267.153 583.359C228.279 513.76 249.945 419.639 266.32 369.745C279.257 330.319 302.664 297.381 334.023 274.464C415.2 215.147 473.996 272.287 474.583 272.86C479.354 277.646 479.354 285.386 474.583 290.172C469.822 294.932 462.098 294.953 457.312 290.219C455.437 288.38 412.281 247.599 348.468 294.234C321.271 314.098 300.916 342.854 289.593 377.37C274.463 423.469 254.208 509.958 288.526 571.437C306.719 604.021 342.619 624.254 382.203 624.254C388.958 624.254 394.443 629.723 394.443 636.494C394.443 643.26 388.958 648.734 382.203 648.734" fill="#E43B3B"/>
  <path fill-rule="evenodd" clip-rule="evenodd" d="M242.56 734.787C196.087 734.787 155.472 709.375 153.331 708.005C54.4506 643.527 2.99731 574.285 0.303977 502.125C-3.18562 409.199 75.6786 347.805 79.0333 345.245C81.4708 343.36 84.4917 342.417 87.5385 342.777C100.611 324.329 118.351 310.193 138.621 302.246C174.127 288.366 229.381 284.705 290.981 346.314C295.757 351.085 295.757 358.835 290.981 363.621C286.195 368.397 278.45 368.397 273.675 363.621C231.737 321.699 189.325 308.683 147.549 325.053C127.877 332.74 111.804 347.365 101.085 367.329C98.9915 371.219 94.9497 373.683 90.5175 373.766C88.6581 373.829 86.6633 373.375 84.9497 372.532C65.695 390.646 22.3297 438.614 24.7777 501.422C27.2621 565.1 74.975 627.682 166.604 687.449C167.031 687.73 223.402 722.798 271.812 705.501C298.042 696.162 317.886 672.698 330.834 635.766L330.063 632.256C328.631 625.657 332.818 619.131 339.417 617.699C346.063 616.157 352.547 620.443 353.996 627.037L355.485 633.896C355.954 636.048 355.829 638.277 355.131 640.37C339.699 686.673 314.386 716.37 279.891 728.625C267.443 733.031 254.808 734.802 242.568 734.802" fill="#E43B3B"/>
  <path fill-rule="evenodd" clip-rule="evenodd" d="M147.68 318.24C147.019 318.24 146.331 318.193 145.649 318.068C138.987 316.969 134.482 310.651 135.597 303.995C135.992 301.385 144.862 238.052 68.154 194.219C62.9873 191.271 60.7009 185.042 62.7061 179.448C64.7269 173.854 70.4301 170.557 76.3154 171.537C161.461 186.349 249.502 165.344 324.195 112.417C329.701 108.474 337.352 109.797 341.258 115.318C345.159 120.828 343.862 128.464 338.341 132.37C271.487 179.766 194.568 203.219 117.581 200.427C168.696 249.391 160.201 305.219 159.737 308.006C158.743 313.995 153.555 318.24 147.68 318.24Z" fill="#E43B3B"/>
  <path fill-rule="evenodd" clip-rule="evenodd" d="M465.92 293.76C459.165 293.76 453.68 288.286 453.68 281.52C453.68 274.75 459.165 269.281 465.92 269.281C506.425 269.281 539.363 236.338 539.363 195.838C539.363 189.067 544.847 183.593 551.602 183.593C558.357 183.593 563.842 189.067 563.842 195.838C563.842 249.827 519.909 293.76 465.92 293.76Z" fill="#E43B3B"/>
</svg>
