<svg xmlns="http://www.w3.org/2000/svg" xml:space="preserve" width="218mm" height="128mm" version="1.1" style="shape-rendering:geometricPrecision; text-rendering:geometricPrecision; image-rendering:optimizeQuality; fill-rule:evenodd; clip-rule:evenodd"
viewBox="0 0 21800 12800"
 xmlns:xlink="http://www.w3.org/1999/xlink"
 xmlns:xodm="http://www.corel.com/coreldraw/odm/2003">
 <defs>
  <style type="text/css">
   <![CDATA[
    .str0 {stroke:#4D4D4D;stroke-width:17.64;stroke-linecap:round;stroke-linejoin:round;stroke-miterlimit:22.9256}
    .ff1 {fill:#d3d8e0}
    .f_sevzap {fill:#00ff00}
    .f_priv {fill:#00ff00}
    .f_sevkaz {fill:#00ff00}
    .f_cent {fill:#00ff00}
    .f_ugn {fill:#00ff00}
    .f_daln {fill:#00ff00}
    .f_ural {fill:#00ff00}
    .f_sib {fill:#00ff00}


    .fil7 {fill:none}
    .fil3 {fill:#4CA1A9}
    .fil5 {fill:#4D4D4D}
    .fil1 {fill:#4D4D4D}
    /*.fil4 {fill:#B3B3B3}*/
    .fil2 {fill:#CC78A3}
    .fil0 {fill:#E0E0E0}
    .fil6 {-fill:#B3B3B3;fill-rule:nonzero}
    .fnt2 {font-weight:normal;font-size:350.75px;font-family:'Open Sans'}
    .fnt1 {font-weight:normal;font-size:250.75px;font-family:'Open Sans'}
    .fnt0 {font-weight:normal;font-size:229.31px;font-family:'Open Sans'}
   ]]>
  </style>
 </defs>
 <g id="Слой_x0020_1">
  <metadata id="CorelCorpID_0Corel-Layer"/>
  <path class="fil0" d="M552.82 5748.72c0.11,0.2 0.23,0.41 0.35,0.61l50.45 87.8c1.83,3.19 4.53,6.19 8.29,9.64l2.91 4.9 0.22 -0.11 6.57 11.43 5.44 9.14 -18.6 109.71 9.57 24.37c1.44,9.07 4.53,18.54 8.39,27.92l-1.52 0.67 -18.83 120.49 51.12 88.97 68.23 51.06 -2.55 17.64 41.24 71.78 7.35 46.7 0.01 53.25 0.43 0.75c-1.44,4.06 -2.71,8.18 -3.67,12.15l-3.92 -1.17 -44.59 29.69 -14.08 105.83 69.42 158.94 -36.44 144.82 -31.51 66.18 65.29 125.51 51.12 88.97 45.3 -9.03 32.81 -36.82 46.58 38.31 52.23 28.7 74.62 -28.42 37.19 -184.53 97.92 -252.06 199.46 -126.46 47.61 -164.34 -2.67 -76.63 93.29 -44.66 -5.66 -34.22 18.8 32.73 108.16 24.2 113.5 -26.91c-16.75,-37.48 -14.33,-44.14 -5.36,-33.46l21.81 37.96 101.28 61.86 293.86 51.97 -1.21 -119.86 75.94 0.83 118.93 -302.12 -35.47 -75.99 -48.82 -84.98 1.66 -4.23 107.34 -65.37 -58.03 -128.29 42.98 -12.44 55.7 -12.18 -1.43 -4.39c4.71,0.32 8.92,0.12 12.89,-0.89l1.73 3.01 125.47 -15.16 35.67 -86.98 112.25 -35.38 113.54 -6.11 41.22 -3.99 1.94 -10.93 9.47 16.48 -17.66 57.26 -28.6 52.26 24.19 77.38 51.12 88.97 83.67 -19.38 53.75 -68.94 55.1 -39.56 103.74 42.67 69.02 -36.84 42.47 4.9 26.42 30.78 109.35 14.78 77.09 -4.36 21.22 108.57 51.12 88.97 50.89 -0.59 41.14 -24.38 3.38 2.53 -1.71 6.17 -30.02 41.04c23.26,40.6 46.58,81.16 69.89,121.73l18.48 10.95 3.29 41.58 3.28 127.51 -46.77 70.33 18.67 68.93 51.12 88.97 85.22 -30.83 -0.73 77.96 51.12 88.97 44.49 48.8 71.17 -29.13 58.47 15.48 38.31 26.84 -1.86 6.85 15.93 46.68 51.12 88.97 53.62 21.77 55.09 -39.66 32.62 49.14 -23.48 66.07 2.71 58.56 51.12 88.97 48.64 82.2 48.68 27.99 58.59 -20.84 7.72 4.43 49.97 86.97 120.36 67.75 64.16 -30.55 71.87 -68.83 -55.04 -235.46 -10.33 -17.97c-1.35,-9.79 -2.54,-19.66 -3.7,-29.55l17.12 29.79 50.29 -44.28 134.47 16.21 29.35 -91.94 69.71 -22.1 65.5 16.81 67.44 78.82 57.84 -35.4 -39.51 -109.48 -8.18 -103.09 80.18 -56.34 62.68 -5.43 70.89 115.7 185.38 49.7 0.58 -1.64 5.12 -5.97 6.98 12.14 186.94 85 97.35 92.14 76.72 -38.87 86.95 71.88 314.67 128.73 129.92 -30.32 0.68 -2.72c3.89,0.21 7.79,0.19 11.7,-0.2l1.37 2.39 76.44 13.97 23.2 66.95 51.12 88.97 62.57 23.24 0.09 -0.07 -5.35 32.91 -38.34 28.56 8.25 66.92 -85.77 65.99 2.01 62 51.12 88.97 84.53 38.51 -2.14 18.98 51.12 88.97 72.41 18.27 33.68 16.02 -82.26 44.05 -11.27 55.76 51.12 88.97 84.99 -8.22 61.93 52.36 65.48 -1.32 61.39 -34.72 155.49 3 7.49 -11 7.29 12.69 35.73 8.06 3.23 2.59 2.11 1.68 -1.42 0.99 100.59 279.77 0.3 0.53c-1.06,8.16 -1.32,16.63 -0.37,25.37 0.21,1.83 1.08,5.11 2.51,9.55l5.24 819 51.12 88.97 93.32 4.35 80.96 -77.89 2.27 1.52 -0.68 43.36 51.12 88.97 170.4 143.12 160.96 -25.55 38.69 26.99 16.72 64.89 8 13.91 -6.9 -0.58 -11.94 122.22 51.12 88.97 40.9 35.3 -13.68 79.99 51.12 88.97 102.13 44.85 38.39 66.82 98.13 -28.93 52.47 125.59 51.12 88.97 122.59 39.21 55.12 -75.87 168.58 26.74 127.43 -60.05 1.35 -25.35 12.1 21.05 49.47 -8.04c111.47,31.71 42.97,17.1 183.2,-6.07 67.4,-11.13 62.44,-4 130.89,7.13 57.4,9.33 65.75,-9 133.13,-6.66 111.88,3.91 118.37,8.73 160.23,-7.2l6.85 11.93 176.05 77.14 -1.8 46.01 51.12 88.97 81.39 63.52 248.54 79.13 98.2 34.3 42.37 59.3 85.74 -11.71 85.75 -48 78.17 -118.25 -65.93 -121.96 42.7 -158.08 59.26 -6.21 18.24 -72.43 73.79 11.32 36.31 -74.38 -14.46 -50.74 27.23 47.39 271.2 178.47 211.42 95.94 8.53 159.74 51.12 88.97 177.42 144.42 139.95 24.6 222.44 -78.32 143.37 79.65 140.77 18.91 48.5 84.41 81.01 20.04c18.88,15.7 34.21,16.38 54.79,13.75l12.1 40.66 51.12 88.97 447.65 133.71 343.63 -122.73 98.24 16.21 51.7 -94.64 177.76 -109.1 211.03 31.67 50.69 71.78 103.21 -62.54 357.16 133.72 81.01 -132.26 142.94 -61.78 -26.28 -139.31 125.97 -336.99 112.98 -75.05 -28.99 -179.79 -51.12 -88.97 -30.23 -9.48 81.01 -97.29 189.04 -81.66 -6.28 -15.36c4.06,-0.34 8,-0.73 11.8,-1.19l6.97 12.13 261.89 -74.11 168.46 99.17 226.37 9.47 256.43 381.42 314.06 490.91 169.35 -31.04 88.37 64.93 76.69 -20.83 123.87 68.48 64.62 4.51 40.02 104.61 51.12 88.97 91.73 119.99 259.91 -67.13 50.98 -91.23 217.64 -162.63 96.94 -22.82 7.65 20.94c-17.03,41.78 -22.45,94.02 -22.19,148.85l-11.32 20.65 23.95 173.55 2.73 4.74 0.87 8.44 -4.24 0.07 -95.32 403.75 47.89 140.08 -290.47 -33.14 -135.46 186.47 51.12 88.97 157.68 244.13 -12.36 94.22 51.12 88.97 174.34 -109.78 249.99 54 210.54 -109.71 151.52 -194.08 171.59 -581.47 135.59 -295.1 24.51 -372.41 -1.04 -1.82 1.66 -12.77 1.68 0.86 114.5 -404.34 -19.26 -137.89 -119.12 -451.55 -50.01 -93.47 -0.9 -300.93 -23.45 -117.09 140.68 117.6 22.18 133.69 74.99 149.22 82.48 219.6 58.28 160.24 51.12 88.97 39.41 44.69 19.81 145.91 51.12 88.97 59.3 44.19 -4.84 80.14 95.75 189.69 51.12 88.97 39.3 -140.68 4.29 -111.52 102.39 13.44 41.81 -9.65 84.17 67.72 -44.26 -175.63 -51.12 -88.97 -111.47 -22.51 -107.84 -76.07 -72.31 -77.81 -34.79 -198.5 -19.96 -152.66 116.36 -38.1 197.12 28.96 -51.12 -88.97 -379 -384.52 -212.7 -285.9 -78.61 -263.06 -51.12 -88.97 -154.61 -161.48 -29.22 -57.82 -51.12 -88.97 -68.25 15.24 -27.25 63.35 51.12 88.97 73.05 76.45 18.25 44.49 -43.95 38.19 -52.96 -25.15 -33.5 76.61 51.12 88.97 52.55 58.9 51.11 234.8 -131.27 -87.99 59.45 -76.12 -51.12 -88.97 -102.24 -67.72 -224.87 -88.83 -200.06 57.47 -115.21 255.87 -8.77 -17.42 -51.12 -88.97 -74.29 63.71 -14.38 -107.96 -51.12 -88.97 -172.17 63.08 -56.9 -21.39 14.91 -56.97 251.4 -384.09 126.06 -409.4 89.45 -192.14 -8.04 -175.58 85.86 -138.43 7.97 -165.09 421.19 -273.81 107.18 43.3 18.9 -39.62 -21.46 -55.07 55.54 -22.45 -1.83 -5.5c3.61,-1.67 7.18,-3.52 10.7,-5.52l3.47 6.04 105.59 -42.66 73.25 -39.63 91.27 -3.3 7.93 -183.18 163.06 -17.88 98.17 -56.74 -4.44 4.25 51.12 88.97 63.3 81.62 136.63 -102.92 67.91 -192.84 108.61 -17.95 101.17 -88.32 -51.12 -88.97 -70.86 -79.52 -91.39 75.81 -8.89 -12.73 49.58 -349.71 -23.24 -225.75 52.38 -152.53 166.11 -158.52 73.79 11.29 50.22 -87.52 62.81 136.74 51.12 88.97 108 3.62 22.42 -75.18 7.21 -161.59 -4.05 -111.35c4.61,-4.61 8.3,-9.52 10.9,-14.81 1.23,-2.53 2.35,-5.05 3.39,-7.65l68.78 -42.31 -102.17 -188.21c-9.05,-22.91 -18.68,-45.78 -28.21,-68.19l65.48 -122.69 20.02 -2.71 -6.55 6.52 -0.15 108.66 51.12 88.97 111.59 115.95 -7.02 29.38 38.89 67.69 -94.42 225.52 41.66 117.07 -44.42 328.04 6.65 218.75 24 222.29 -93.47 68.09 8.19 85.01 -52.94 47.32 82.59 147.06 -22.59 201.96 51.12 88.97 250.07 430.94 831.15 837.98 42.34 -353.82 -6 -167.9 -51.12 -88.97 -38.33 -57.69 42.56 -159.93 68.98 -36.8 -152.11 -269.87 35.82 -159.41 101.81 -73.7 -2.66 -94.72 -51.12 -88.97 -130.5 -68.43 -85.2 -262.4 38.87 -15.92 46.03 80.12 94.07 -35.39 -51.12 -88.97 -104.22 -147.83 -77.38 24.27 -58.85 -57.61 -19.17 -93.26 -51.12 -88.97 -114.94 -23.2 -30.09 77.27 -42.29 -12.79 -119.54 -441.2 44.11 -146.93 98.24 -1.94 -13.51 -292.57 125.9 148.57 70.86 -333.59 142.94 -97.98 178.28 32.34 -51.05 -267.6 56.1 -514.4c10.01,-25.18 13.5,-45.95 7.49,-68.82l38.89 -356.32 -51.12 -88.97 -6.98 -6.05 247.17 -106.01 -11.59 -121.92 -51.12 -88.97 -451.93 -130.99 -70.41 61.9 -70.05 -8.16 10.49 -1.3 64.29 -84.83 25.41 -252.15 -51.12 -88.97 -41.73 -26.54 -7.45 2.8 -40.49 -70.48 -116.2 19.99 -5.31 -9.29 55.28 -130.15 74.33 98.29 60.62 -31.24 59.79 99.01 66.3 -95.33 14.88 -127.41 97.56 -52.82 143.46 43.45 280.9 -135.39 -45.11 -81.62 118.38 42 20.41 -119.1 -51.12 -88.97 -106.95 -1.76 -0.66 -2.82 -51.12 -88.97 -65.23 -27.02 33.06 -27.65 -51.12 -88.97 -4.58 -5.01 73.99 -32.76 -77.11 -156.91 -51.12 -88.97 -331.05 114.43 -46.23 139.22 -101.16 88.31 51.12 88.97 68.97 45.43 -55.48 12.71 -302.82 -151.65 -422.42 172.08 -618.15 190.57 -198.93 213.56 -0.81 75.89 -106.61 7.48 -168.69 100.07 75.73 145.74 51.12 88.97 96.07 -9.61 58.3 50.35 -30.34 97.68 -128.13 -11.38 -93.43 31.86 -155.11 -147.21 -45.62 226.34 -208.52 99.28 -86.8 108.34c-28.2,16.26 -49.88,38.58 -59.77,74.7l-8.29 10.37 -213.35 69.28 -84.19 -120.01 45.99 -15.89 -5.12 -65.08 -51.12 -88.97 -60.93 -0.12 -27.67 46.28 43.06 74.95 -108.99 -33.55 -224.52 88.81 -169.46 139.77 -83.22 160.77 -96.07 9.58 -100.25 -78.18 -110.01 -11.32 -70.47 61.91 -23.63 -30.25 30.35 -20.2 -51.12 -88.97 -185.17 -51.83 -126.89 72.24 18.44 213.88 -49.69 31.84 3.4 -16.84 -51.12 -88.97 -29.02 -5.86 46.93 -27.84 -51.12 -88.97 -116.36 -16.21 -376.3 105.27 50 93.4 -116.44 74.4 24.22 77.3 51.12 88.97 14.14 -3.82 61.93 110.86 -135.19 5.34 -48.81 44.54 17.99 90.52 -107.93 -3.59 -130.87 -69.9 -73.37 148.24 -228.4 -89.53 -70.21 348.18 -161.5 -61.53 -148.52 -201.13 96.35 -42.35 -109.57 -264.9 -51.12 -88.97 -91.21 -69.11 -163.73 21.33 -157.25 -100.54 -77.76 259.73 -336.52 69.8 -38.75 -39.41 17.62 -34.73 -51.12 -88.97 -316.12 -67.4 -106.06 94.57 -4.68 9.05 -30.04 -52.27 -48.71 -64.22 -84.37 59.11 -24.21 6.56 -4.98 -31.14 -51.12 -88.97 -18.18 -4.42 179.57 -210.96 125.08 -242.93 -171.62 -299.15 -51.12 -88.97 -207.46 -49.04 -56.85 54.12 25.88 -43.34 -51.12 -88.97 -59.52 -19.78 16.08 -15.41 -51.12 -88.97 -86.88 -108.08 -101.06 15.88 -194.65 192.61 8.15 139.31 -162.25 -21.81 -4.98 42.47 41.64 98.99 -109.97 -47.55 -70.44 43.75 -87.65 -35.09 -45.18 -78.64 -188.75 -34.43 -18.28 108.66 -232.67 -14.33 -177.74 90.92 -119.1 -20.32 -102.52 59.04 -22.14 47.19 -31.45 -54.74 -39.81 -43.56 -28.79 12.89 5.73 36.69 51.12 88.97 15.83 18.08 -20.37 43.42 46.41 147.09 -117.04 5.39 -52.97 -20.08 16.39 -20.19 -51.12 -88.97 -23.63 -40.26 -9.25 17.49 -44.18 -76.9 -39.12 -19.1 -36.7 43.08 51.12 88.97 39.42 54.64 36.62 -24.3 29.11 50.67 4.16 4.56 -205.96 -78.08 -169.94 -37.88 -71.18 83.48 -56.1 242.32 51.12 88.97 40.13 58.34 23.27 111.34 -123.89 -25 -55.08 -182.5 -51.12 -88.97 -73.36 -10.34 -3.65 -45.87 -51.12 -88.97 -79.85 25.02 -27.31 33.73 45.97 80.01 -50.5 99.41 -83.74 -113.91 19.59 -16.05 51.15 -181.73 -33.95 -59.09 45.88 14.66 15.48 -30.47 -51.12 -88.97 -25.11 -42.51 -42.03 4.63 4.21 53.19 34.39 59.85 -40.7 9.44 -70.54 116.23 -82.25 48.6 -77.34 6.17 -90.71 90.41 -52.02 275.74 -224.66 233.7 -22.55 165.78 51.12 88.97 171.01 34.46 60.34 111.07 -33.03 163.65 -69.22 55.97 66.18 -75.74 -19.23 -156.09 -51.12 -88.97 -165.73 -58.82 -112.29 71.63 -51.84 203.33 -189.01 128.54 -153.26 23.49 -118.58 84.76 -228.45 -213.63 12.67 -62.85 199.01 145.2 124.02 -22.04 208.42 -81.2 175.9 -225.44 6.51 -139.99 314.22 -462.08 41.87 -82.09 -1.14 -119.85 165.95 -104.21 65.09 -178.88 -79.16 -164.56 113.77 7.88 10.86 -137.61 -51.12 -88.97 -108.32 -30.36 -27.83 96.06 11.52 64.03 -64.05 -41.89 -120.63 59.01 -157.65 134.9 -116.43 74.3 -153.28 5.37 -91.37 57.64 56.28 116.42 -113.74 132.87 -121.94 11.67 -14.02 51.54 51.12 88.97 25.96 40.54 -51.67 85.75 4.81 66.21 27.05 63.44 -130.84 79.15 -3.81 -129.14 -91.97 -245.61 -6.58 -11.46 2.26 -1.22 -41.7 -135.48 -51.12 -88.97 -134.86 -220.98 19.89 -82.23 -7.15 -111.58 -51.12 -88.97 -102.6 4.71 -35.15 90.34 40.54 114.1 28.83 50.18 -26.88 -5.42 -32.82 73.11 -26.66 114.23 -105.29 36.74 -11.95 -4.99 2.64 -1.58 15.44 -76.57 -51.12 -88.97 -246.49 -53.37 -103.61 -115.1 -180.93 -19.37 -7.39 -16.04 113.54 12.01 82.38 -102.96 -51.12 -88.97 -142.73 -65.02 -74.26 59.73 -34.43 -59.91 -364.02 -171.21 -58.57 38.92 -45.18 -63.54 -225.84 77.72 -28.3 -41.08 44.91 -76.2 -13.08 -96.87 133.77 -16.49 98.76 103.23 73.96 -79.3 29.49 -164.34 -51.12 -88.97 -119.5 -197.99 -78.21 154.51 -236.34 93.61 -38.41 100.97 -118.04 70.01 -0.1 8c-3.13,1.47 -6.41,3.4 -9.8,5.83l-3.38 -5.88 -42 24.92 -42.92 -143.89 -51.12 -88.97 -136.48 -5.81 -123.23 -71.94 -168.53 -8.63 -136.18 208.11 -18.53 -16.39 -38.56 -184.68 48.38 -167.76 -51.12 -88.97 -156.74 -13.46 -71.29 137.79 50.01 93.46 -79.54 70.87 -36.31 -30.79 4.03 -77.35 -6.84 -11.91 7.53 -1.85 3.05 -58.83 20.28 -46.6 -32.69 -71.86 57.31 -68.15 161.09 -134.19 114.99 -13.05 84.42 -95.33 55.13 -151.76 -10.33 -30.05c3.02,-2.06 5.61,-4.19 7.83,-6.39l9.7 16.89 11.32 -30.06 19.49 79.93 -23.28 187.34 50.64 126.15 -5.81 118.41 51.12 88.97 238.63 218.44 173.44 2.37 159.78 -145.31 71.26 -174.09 -12.11 -227.1 70.15 -311.97 -11.63 -121.9 -58.97 -156.86 7.86 -110.76 34.54 -13.31 46.15 80.32 59.25 -24.26 -29.8 -103.82 -51.12 -88.97 -159.25 -162.61 -259.73 -77.73 -59.97 27.79 -147.74 49.93 -17.6 105.12 -120.02 127.97 -178.25 -32.32 -48.9 41.21c-4.91,-7.92 -10.37,-13.12 -26.32,-18.11 -21.78,21.96 -36.8,48.33 -52.41,74.85 -5.83,9.95 -9.84,16.17 -12.87,20.46l-130.14 109.67 -75.89 -18.95 -110.86 46.48 -68.92 -17.47 -41.92 63.99 -43.23 52.87 -64.17 30.54 19.4 65.56 -46.02 30.52 -124.64 -46.87 -59.35 114.85 -61.62 179.61 -82.95 15.92 -332.08 -114.09 -155.15 -25.35 -2.5 16.23 -10.54 -18.34 -115.91 -18.95 -153.34 23.44 -30.1 113.48 3.36 55.02 -22.53 12.2 -41.48 -72.19 -55.01 -14.71 -70.16 -101.16 -121.95 47.93 -66.83 -5.78 -7.84 -7.13c-11.19,-4.41 -26.46,-2.54 -42.86,2.78l-39.22 -3.38 -124.79 61.79 -80.24 74.41 -120.46 -31.53 -97.67 107.12 -89.16 -7.09 -22.44 93.27 -145.68 57.6 -17.61 123.26 38.87 76.67 -73.94 61.24 2.01 62 51.12 88.97 28.09 13.36 -0.04 25.96 -35.81 41.69 8.59 14.96 -5.45 0.29 -12.35 -4.5 -21.26 24.77 -128.29 42.96 -78.14 82.11 -88.63 116.18 -28.02 103.01 4.4 61.27 -9.48 13.09 -46.67 38.45 -11.48 42.48 1.53 2.66c-2.64,4.47 -4.87,7.99 -6.83,10.89l-0.36 -0.12 -8.51 -9.36 -94.19 -27.23 -1.62 -2.31 16.04 -50.18 -51.12 -88.97 -63.32 -27.28 -57.3 86.27 -163.12 90.28 -5.02 78.76 51.12 88.97 69.65 10.62 0.87 69.87 51.12 88.97 60.68 5.36 -66.96 58.95c-38.37,1.74 -34.8,0.92 -44.14,42.55l-12.23 -2.95 -62.62 13.19 -39.1 50.1 -43.94 2.04 -17.51 68.89 43.16 75.12 -31.62 98.88 5.21 9.06c-2.65,2.9 -5.24,5.92 -7.8,9.12l-4.93 -6.33 -62.9 52.28 -32.06 33.42 -0.11 54.33 38.09 66.29 -13.9 47.31 51.12 88.97 58.23 55.61 -21.28 119.52 63.12 215.43c0.43,3.18 1.67,6.5 3.62,9.89l2.96 5.15 -1.76 1.18 17.93 61.12 -30.85 127.27 18.71 32.56 -22.2 -18.29 -8.44 34.6 -107.2 -25.19 -54.47 54.19 -57.08 -4.26 -90 105.04 -106.8 17.23 -18.16 -43.44 -51.12 -88.97 -183.1 -62.35 -105.34 73.04 51.12 88.97 82.17 74.11 -31.14 13.27 -85.56 -78.87 -64.78 32.73 3.76 13.56c-2.87,-1.55 -5.73,-3.01 -8.6,-4.37l-12.13 -21.12 -104.06 -141.57 -46.98 150.46 -16.4 3.6 -50.31 -39.32 -133.76 -19.74 -46.2 39.8 -28.6 -81.24 -51.12 -88.97 -90.64 54.16 -17.59 123.31 -47.41 37.54 6.87 55.72 42.29 73.59 -16.03 65.8 3.26 145.61 -36.43 126.63 -67.2 207.5 20.13 43.97 51.12 88.97 42.27 -9.19 52.5 148.93 -17.55 87.08 51.12 88.97 1.92 3.23c0.49,1.55 1.13,3 1.95,4.42l0.32 0.56zm9578.56 -5666.43l50.62 88.1 34.17 39.63 -36.82 7.7 -71.34 -36.9 -16.79 55.67 51.12 88.97 16 24.08 12.13 23.84 34.43 59.92 -29.13 -16.7 -18.44 35.61 51.12 88.97 35.63 32.51 13.07 -50.77 -35.11 -61.11 21.72 -25.96 -0.96 -64.86 73.49 -2.05 83.19 47.71 68.19 -45.25 -39.4 -69.83 -51.12 -88.97 -39.94 -24.93 -4.15 2.02 -20.12 -35.01 -44.23 -59.53 -51.62 5.03 -89.31 -86.87 3.1 68.11 0.5 0.87zm754.11 261.73l50.62 88.1 22.16 29.77 40.52 -19.94 -51.12 -88.97 -41.48 -58.99 -31.34 16.2 10.14 32.96 0.5 0.87zm-10543.15 3899.98l50.62 88.1 107.16 96.23 92.48 -72.22 -123.76 -255.41 157 -263.66 -51.12 -88.97 -59.74 -73.71 -71.19 31.09 -212.41 -218.12 -41.25 43.6 -30.88 201.49 -113.72 80.92 -2.71 142.26 51.12 88.97 157.95 22.51 89.95 176.05 0.5 0.87zm14871.76 -881.65l-0.5 -0.87 -14.02 -66.8 131.24 44.71 51.12 88.97 -7.75 68.6 -55.69 4.01 -53.78 -50.52 -50.62 -88.1zm-4305.57 -651.35l50.62 88.1 29.44 30.28 56.47 -20.44 -18.59 -56.07 -51.12 -88.97 -40.59 -21.22 -48.56 27.56 21.83 39.89 0.5 0.87zm1126.19 -1110.06l-0.5 -0.87 -2.95 -63.86 57.84 -17.72 126.27 79.73 27.27 47.46 13.34 -20.17 -40.54 -54.86 -51.12 -88.97 11.4 -56.41 90.91 -81.11 -0.21 -57.81 -98.72 -39.48 -51.12 -88.97 23.18 -69.9 91.65 16.26 51.12 88.97 5.56 53.96 56.92 -22.84 83.51 -55.49 64.16 85.26 51.12 88.97 18.47 132.53 15.12 59.58 -79.55 24.58 -13.57 67.36 -10.45 2.39 19.09 33.22 1.66 28.07 0.43 -0.04 16.58 -48.64 61.14 89.14 51.12 88.97 -26.23 96.4 -74.81 79.83 29.99 54.52 33.52 -118.1 115.63 -35.43 51.12 88.97 -3.76 14.96 28.09 -18.65 51.12 88.97 53.26 105.63 -40.22 154.63 -80.89 53.72 -129.84 -17.14 -141.31 73.17 -51.12 -88.97 -7.69 -107.77 79.99 -94.79 -48.99 14.78 -106.7 -109.69 -91.5 -117.89 -57.29 -40.92 -51.12 -88.97 9.3 -37.26 -0.53 0.17 -78.53 -81.38 -50.62 -88.1zm-2507.06 3046.05l35.37 61.56 -76.09 2.25 -4.62 -74.8 32.11 -36.75 12.73 46.87 0.5 0.87zm2328.97 5606.5l-7.81 -13.59 -56.93 -11.49c13.98,-4.94 27.96,-9.91 41.87,-14.99l76.59 4.41 167.45 -71.88 69.46 -70.68 18.74 -11.12 -30.59 78.14c-23.65,18.11 -48.29,37.3 -72.46,54.54l-199.75 44.13 -6.57 12.53zm352.84 -215.12l67.37 -39.97c66.84,-116.64 133.49,-174.13 228.4,-271.31l104.38 -170.6 80.06 -137.69 -11.03 -53.6 20.94 36.45 11.8 -20.24 64.4 -172.55c22.65,-24.78 44.07,-51.49 66.47,-76.65 4.64,1.44 9.29,2.91 13.93,4.39 -0.12,1.59 -0.24,3.18 -0.38,4.75l-60.77 154.43 -20.7 157.18 7.83 91.82c-17.38,25.24 -33.79,52.6 -50.53,78.44l-59.52 36.42 -21.73 25.47 6.33 59.96c-11.96,17.59 -23.84,35.95 -35.3,53.89l-58.25 2.66 -15.69 60.15c-30.25,33.53 -61.81,66.53 -92.59,99.65l-109.87 11.22 -87.35 79.93 -48.2 -14.2zm-2257.48 -5793.36l52.88 109.67 11.58 20.16 -10.33 -4.91c-19.04,-39.45 -38.27,-78.85 -57.36,-118.14l3.23 -6.78zm1321.93 -2953.97l-54.49 12.34 -16.1 39.27 51.12 88.97 33.52 50.65 58.95 13.22 7.96 -53.23 -29.84 -62.25 -51.12 -88.97zm-618.26 1502.83l-43.84 4.25 -14.43 34.46 22.52 45.66 51.12 88.97 39.22 -27.59 -3.47 -56.78 -51.12 -88.97zm-595.26 880.31l-15.65 112.43 -129.18 -171.95 15.8 -109.22 67.37 -55.18 -33.02 63.18 51.12 88.97 43.56 71.77zm1035.09 -1105.68l-44.16 -12.62 -18.71 28.02 19.32 43.13 51.12 88.97 34.84 -24.71 8.71 -33.82 -51.12 -88.97zm600.46 -254.68l-35.65 19.91 -3.12 37.8 51.12 88.97 55.96 47.42 14.43 -49.05 -31.62 -56.08 -51.12 -88.97zm-637.85 746.22l51.12 88.97 -22.34 27.28 -23.34 -23.37 -51.12 -88.97 9.77 -39.15 35.91 35.24zm584.23 -2082.71l-37.57 -44.62 -37.63 23.94 -16.67 48.76 -4.01 33.45 51.12 88.97 51.73 28.27 63.74 -3.59 -19.59 -86.21 -51.12 -88.97zm1419.97 2765.02l11.22 22.08 32.53 56.62 -83.47 22.59 -120.57 59.02 -82.22 7.06 242.51 -167.37zm-79.97 -1397.41l-83.77 -77.86 -10.89 20.38 0.34 54.31 51.12 88.97 91.22 41 3.1 -37.83 -51.12 -88.97zm-923.76 322.16l51.12 88.97 -36.09 22.17 -18.64 -30.88 -51.12 -88.97 27.47 -35.13 27.26 43.84zm93.7 -161.81l-68.74 26.77 51.12 88.97 42.53 47.02 41.28 -14.3 -15.07 -59.49 -51.12 -88.97zm-1819.04 784.32l43.71 89.18 51.12 88.97 44.95 -9.64 9.11 -110.32 -51.12 -88.97 -36.93 -29.85 -60.84 60.63zm5538.78 -1167.36l51.51 31.7 51.12 88.97 -31.65 51.55 -50.42 -22.37 -51.12 -88.97 30.56 -60.88zm-187.08 1230l-6.03 29.91 51.12 88.97 143.58 -1.52 142.55 -41.39 -23.82 -108.51 -51.12 -88.97 -82.68 -28.83 -61.46 -27.64 -61.08 60.86 -9.19 6.82 -39.32 -68.43 -46.25 -58.12 -42.22 28.07 1.58 113.12 51.12 88.97 33.22 6.69zm201.02 -769.84l23.31 96.18 51.12 88.97 263.07 56.06 104.54 -125.25 -27.96 -118.45 -51.12 -88.97 -68.1 50.33 -106.62 -30.65 -39.33 43.85 -58.55 -11.8 -20.59 56.83 -69.77 -17.1zm4919.23 5546.95l-16.3 37.26 51.12 88.97 53.11 33.55 37.29 -27.69 -51.12 -88.97 -45.97 -60.37 -28.13 17.25zm-5753.71 -5324.97l1.65 82.63 53.76 96.22 51.12 88.97 47.5 -8.69 -33.26 -107.34 -51.12 -88.97 -69.65 -62.82zm601.39 -52.33l-55.87 3.17 14.2 25.71 78.9 40.83 -30.64 -53.33 -6.59 -16.38zm75.8 113.03l13.78 20.71 51.12 88.97 -57.55 43.26 -67.29 -28.81 -78.07 84.86 -74.45 -24.14 -13.7 113.09 -107.25 -12.47 -107.76 -55.29 -51.12 -88.97 -4.57 -83.24 -41.42 -81.53 8.93 -104.88 28.82 -97.85 125.48 13.07 85.45 105.68 40.17 -31.46 -47.61 -82.86 23.58 -71.49 104.84 39.44 80.31 -35.6 133.02 35.92 51.12 88.97 25.1 72.13 -29.5 131.31 -91.43 -38.82zm4960 5283.04l-65.11 25.61 0.26 42.39 51.12 88.97 38.24 37.24 -6.57 22.62 46.23 93.96 51.12 88.97 63.02 -15.53 20.26 -161.51 -51.12 -88.97 -37.16 -51.56 -46.44 -23.46 -10.54 36.3 -2.19 -6.06 -51.12 -88.97zm-1860.66 -6568.97l114.32 208.23 51.12 88.97 39.46 -26.21 82.36 -197.03 68.5 -85.9 -39.74 -84.93 -51.12 -88.97 -138.77 -16.6 -106.81 106.69 -19.32 95.75zm2877.04 4399.88l51.12 88.97 -123.1 65.39 -43.3 -65.14 -51.12 -88.97 122.53 -20.38 43.87 20.13zm-989.39 3392.19l36.12 -48.07 48.55 21.78 51.12 88.97 -24.21 72.18 -42.06 5.89 -51.12 -88.97 -18.4 -51.78zm54.57 -789.1l-20.42 57.58 15.18 64.74 51.12 88.97 81.31 -18.87 18.02 -36.84 -51.12 -88.97 -94.09 -66.61zm0.92 489.98l-38.41 47.54 29.45 68.45 51.12 88.97 60.66 -38.18 -20.26 -66.72 -51.12 -88.97 -31.44 -11.09zm-183.49 778.42l-58.26 38.78 -37.36 208.97 -7.47 49.04 51.12 88.97 50.86 10.26 65.8 -111.87 14.56 -119.69 -28.13 -75.49 -51.12 -88.97zm138.4 -352.16l52.27 27.36 51.12 88.97 14.17 96.66 -102.27 5.89 -51.12 -88.97 -14.6 -94.41 50.43 -35.5zm-364.15 720.38l50.34 12.57 51.12 88.97 2.67 70.22 -48.59 50.4 -62.51 59.58 -20.06 75.27 -32.98 91.98 -23.65 69.85 -20.84 -16.2 -51.12 -88.97 6.71 -128.53 26.66 -155.9 75.45 -52.09 40.73 -23.09 6.07 -54.06zm-222.59 529.69l51.12 88.97 -15.51 45.97 -38.35 29.85 -46.39 178.59 -27.34 6.01 -51.12 -88.97 -10.2 -73.06 29.65 -100.58 -9.08 -84.34 32.49 -16.44 55.94 -13.74 28.79 27.74zm187.97 -5388.38l-65.24 113.7 51.12 88.97 119.5 204.51 71.88 -244.83 -51.12 -88.97 -76.3 -54.88 -49.84 -18.5zm-88.64 5505.52l9.21 42.53 51.12 88.97 54.67 -7.73 -0.1 -56.4 -20.13 -44.82 -51.12 -88.97 -33.5 21.46 -10.15 44.96zm1015.44 -4844.99l28.03 70.48 51.12 88.97 149.5 55.53 68.87 -19.93 -24.79 -72.66 -51.12 -88.97 -111.03 -36.5 -110.58 3.08zm-10777.03 -5442.46l35.45 61.69 45.05 -39.37 41.15 19.51 37.72 65.65 10.31 -39.1 41.3 -22.53 -59.17 -34.56 -51.12 -88.97 -51.7 -91.89 92.46 -40.46 84.17 112.57 51.12 88.97 -16.21 41.77 59.92 40.23 48.41 84.25 -0.38 -15.54 11.99 -16.6 -25.59 -19.97 -51.12 -88.97 50.9 -43.13 32.92 45.99 51.12 88.97 -24.81 19.37 43.2 20.99 62.78 -60.46 51.12 88.97 25.32 69.77 -61.23 66.4 -113.96 -20.24 -42.55 -74.05 1.53 12.37 -124.88 33.89 -46.39 -62.77 -38.42 -66.87 -27.49 59.21 -58.28 16.94 34.35 59.78 17.79 51.34 -34.13 29.67 -51.12 -88.97 -21.02 -49.22 30.09 -25.61 -7.41 -9.2 -14.98 -26.08 -37.43 21.1 -35.08 -49.28 -51.12 -88.97 38.48 -37.18 44.74 -2.05 -49.46 -86.08 -1.58 -48.09 21.65 -23.73 51.12 88.97 13.97 56.19 -33.5 15.38zm9809.57 2553.81l13.06 -64.78 49.46 -6.12 -28.39 80.28 -34.13 -9.38zm-6899.76 420.95l51.12 88.97 -21.99 45.61 -48.59 50.74 -67.48 -79.98 -51.12 -88.97 47.03 -71.96 52.03 18.62 39 36.97zm-6114.46 -1276.07l44.05 90.96 51.12 88.97 140.37 32.19 26.85 -49.26 7.13 -80.6 -51.12 -88.97 -58.53 -96.45 -114.95 15.91 -44.92 87.25zm-1684.56 -692.02l51.12 88.97 1.82 44.58 -41.23 16.95 -20.89 -34.93 -51.12 -88.97 9.26 -27.9 27.55 -25.08 23.49 26.38zm2576.05 549.22l32.82 57.12 7.89 -47.47 -9 -13.55 -51.12 -88.97 22.11 -88.75 93.76 -44.61 68.34 39.18 130.37 -37.23 18.01 -68.39 84.65 21.3 34.33 -86.26 108.2 72.61 83.06 -51.79 -38.05 -66.22 50.56 -40.6 59.42 41.62 194.65 -20.09 19.6 -55.33 74.1 10.71 61.34 -135.89 51.2 82.31 57.02 -30.84 97.7 19.7 133.67 -53.54 85.39 59.6 104.31 -34.03 87.78 110.88 240.14 69.59 35.13 -47.98 149.86 -7.89 51.12 88.97 46.28 85.58 -37.62 102.6 -158.08 48.56 -596.79 -107.6 -95.42 73.93 -89.55 -39.24 -52.94 31.69 -59.38 -62.84 -26.98 70.85 -46.5 41.44 -38.18 -62.77 -24.53 58.61 -60.24 -37.59 -16.33 60.25 -52.09 -14.72 -32.72 56.93 -83.09 -8.24 -78 -75.09 11.23 91.24 -62.77 59.37 -130.39 16.06 -123.88 89.4 -48.23 113.12 -94.97 302.83 -43.95 -34.27 -69.99 -31.07 -42.92 -74.7 -13.15 -4.41 -51.12 -88.97 -31.55 -137.65 33.04 -21.96 -33.73 -58.7 15.66 -119.72 50.52 22.92zm-6340.35 -1643.36l94.22 25.64 79.11 -30.45 51.12 88.97 17.71 131.38 16.1 15.49 57.54 -120.97 51.12 88.97 48.19 122.37 -69.2 277.63 -161.89 46.81 -51.12 -88.97 -132.9 -556.87zm8980.44 -163.85l-71.35 19.33 -0.12 42.17 51.12 88.97 47 46.05 42.16 -42.16 -17.69 -65.39 -51.12 -88.97zm217.51 176.01l5.91 54.59 51.12 88.97 52.45 -9.1 -6.42 -66 -51.12 -88.97 -51.94 20.51zm-734.94 -63.89l30.15 87.58 51.12 88.97 64.38 -40.39 -14 -70.3 -51.12 -88.97 -80.53 23.11zm140.4 -264.02l25.31 55.66 51.12 88.97 38.96 -25.87 -51.12 -88.97 -44.22 -59.51 -20.05 29.72z"/>

  <g id="_2946779232464">
   <text x="2199.84" y="8669.78"  class="fil1 fnt2">Население увеличилось</text>
   <rect x="1668.78" y="8435.19" class="fil2" width="358.18" height="358.18" rx="40" ry="40"/>
  </g>
  <g id="_2983480223712">
   <text x="2199.84" y="9169.78"  class="fil1 fnt2">Население не изменилось</text>
   <rect x="1668.78" y="8935.19" fill="#B3B3B3" class="fil4" width="358.18" height="358.18" rx="40" ry="40"/>
  </g>
  <g id="_2983480230784">
   <text x="2199.84" y="9676.08"  class="fil1 fnt2">Население уменьшилось</text>
   <rect x="1668.78" y="9435.19" class="fil3" width="358.18" height="358.18" rx="40" ry="40"/>
  </g>


  <g id="_2983480188128">
   <path data-id="fo_id=1;measures=v" classs="f_cent" class="f1" fill="#d3d8e0" d="M1825.7 3446.93l-62.9 52.29 -32.06 33.42 -0.11 54.31 47.31 34.89 -23.12 78.72 115.46 110.25 -27.4 153.86 63.1 215.18 0.03 0.25c0.64,4.72 3.06,9.72 6.9,14.81l-2.08 1.4 0 0 17.93 61.14 -30.85 127.25 79.07 65.22 0.39 0.3 55.76 54.15 67.59 -29.1 2.09 -0.91 2.17 0.59 88.97 22.87 105.97 -38.61 24.74 -69.76 2.16 -6.1 6.2 2.08 102.62 35.35 59.19 -6.23 5.56 -0.5 1.48 5.37 24.8 91.61 86.98 52.29 24.53 -14.28 27.45 -103.31 -10.89 -12.25c3.43,-2.37 6.92,-5.04 10.5,-8.06l10.72 12.04 88.6 2.41 188.99 -53.78 27.64 -25.54 30.5 -141.88 0.11 -0.51 0.14 -0.44 35.97 -93.47 0.66 -1.65 1.37 -1.12 92.79 -73.71 -13.2 -22.26 11.18 -7.03 15.46 26.08 41.57 24.46 40.62 6.47 157.36 -92.07 0.28 -0.16 0.44 -0.21 80.82 -35.75 -7.49 -47.99 0 0 -12.22 -79.76 -6.74 -19.23 9.8 -11.92 7.4 21.12 104.21 -36.88 1.65 -0.54 1.67 0.27 118.74 19.83 145.46 -52.01 -3.2 -22.05c5.22,-2.16 9.1,-4.53 12.33,-7.02l3.89 26.85 43.56 0.08 39.22 -37.6 2.29 -2.18 3.18 0.38 78.98 9.72 2.83 0.35 1.68 2.4 24.68 34.74 54.36 -18.06 6.4 -22.05c4.58,0.09 9.19,0.07 13.78,-0.05l-6.49 22.33 229.99 48.39 32.14 -13.16 1.92 -0.79 2.03 0.47 75.37 17.31 4.46 1.01 0.68 4.47 9.06 63.46 55.82 39.14 1.07 0.74 0.66 1.06 41.55 63.7 102.57 -69.55 2.39 -1.57 2.72 0.6 205.9 45.6 30.07 -129.5 0.56 -2.37 1.98 -1.48 48.85 -35.6 -36.15 -54.41 -114.48 5.27 -2.67 0.14 -2.03 -1.83 -145.33 -129.68 -1.36 -1.25 -0.53 -1.74 -62.71 -203.41 -131.55 -120.96 -226.9 -58.09 -8.55 3.74 -6.77 -3.19c-2.4,-1.62 -4.76,-3.33 -7.09,-5.13l11.85 -5.17 0 0 -67.95 -97.37 -2.23 -3.2 1.78 -3.54 56.26 -111.57 -47.04 -89.35 -54.97 -8.08 -2.12 -0.35 -1.46 -1.47 -122.86 -119.7 -7.43 4.78c-2.39,-4 -4.76,-7.71 -7.1,-11.17l9.03 -5.82 10.99 -127.36 -105.48 -20.58 -2.07 6.67 -7.75 -10.31 -95.3 -126.91 -70.41 -9.82 -2.56 -0.33 -1.59 -2 -69.47 -84.76 -1.4 -1.7 -0.09 -2.27 -2.43 -64.16 -53.05 -56.58 -26.24 12.88 -21.91 54.66 -2.21 5.6 -5.76 -1.7 -150.57 -44.05 -2.07 -0.58 -1.33 -1.8 -42.29 -55.36 -141.64 -69.23 -1.14 -0.58 -0.86 -0.91 -67.26 -72.9 -0.32 -0.32 -0.34 -0.49 -33.2 -50.19 -48.54 32.24 -43.52 93.84 -0.48 1.09 -0.81 0.79 -58.02 59.4 -1.95 2.02 -2.8 0.01 -107.87 -0.9 0.64 3.14c-6.5,-0.63 -10.62,-0.62 -13.49,-0.14l-1.22 -6.05 -23.98 -19.62 -56.95 3.07 -1.42 0.08 -1.19 -0.44 -11.18 -4.08 0 0 -21.26 24.78 -128.29 42.96 -78.15 82.1 -88.62 116.19 -28.01 103.01 4.39 61.27 -9.48 13.08 -46.66 38.46 -11.49 42.49 1.51 1.65 0.53 0.15c-2.86,4.89 -5.26,8.66 -7.34,11.73l-0.36 -0.1 -1.28 -1.44 -7.23 -7.94 0 0 -94.19 -27.22 -56.3 -80.18 19.6 -61.28 -63.32 -27.29 -57.3 86.28 -163.14 90.28 -4.99 78.76 73.82 11.27 46.56 56.46 1.25 101.72 64.08 5.68 70.33 28.67 -9.84 48.74 -79.73 70.2c-38.37,1.73 -34.8,0.92 -44.14,42.55l-12.22 -2.96 0 0 -62.64 13.2 -39.09 50.1 -43.93 2.04 -17.52 68.89 52.22 46.81 -40.69 127.19 6.21 7.99c-2.99,3.23 -5.92,6.61 -8.79,10.19l-4.93 -6.33 0 0z"/>
   <text data-id="fo_id=1;measures=v" x="2440.79" y="3659.12"  class="fil5 fnt0"></text>
   <text data-id="$2;10" x="2452.45" y="3378.74"  class="fil5 fnt0"></text>
   <text x="2460.77" y="3089.84"  class="fil1 fnt1">Центральный</text>
  </g>
  <g id="_2983480209984">
   <path data-id="fo_id=6;measures=v" classs="f_ural" class="f1" fill="#d3d8e0" d="M10241.98 3429.39l-71 -10.03 -60.12 118.34 -93.82 -127.64 -53.12 101.62 95.23 156.88 -16.2 116.29 -182.84 -243.38 18.34 -126.76 117.14 -95.95 51.15 -181.73 -41.83 9.71 -70.54 116.22 -82.25 48.62 -77.34 6.16 -90.71 90.42 -52.02 275.74 -224.67 233.69 -22.54 165.78 174.13 35.11 108.32 199.4 -33 163.64 -125.6 101.53 16.65 61.3 70.98 61.41 -156.73 4.62 -10.2 -165.12 150.73 -172.48 -19.23 -156.08 -165.71 -58.81 -112.3 71.61 -51.85 203.33 -189.02 128.53 -153.26 23.49 -118.57 84.77 -286.55 -267.95 19.65 -97.51 199 145.2 124.03 -22.03 208.42 -81.2 175.9 -225.44 6.51 -139.99 314.22 -462.08 41.88 -82.1 -1.15 -119.84 165.94 -104.21 65.11 -178.89 -79.17 -164.56 113.77 7.89 10.86 -137.61 -108.31 -30.35 -27.84 96.06 11.52 64.01 -64.05 -41.88 -120.62 59.02 -157.67 134.89 -116.41 74.3 -153.28 5.37 -91.36 57.63 56.26 116.43 -113.74 132.87 -121.95 11.67 -14.01 51.54 79.91 124.81 -54.5 90.46 4.8 66.2 27.06 63.43 -152.72 92.39 -28.43 -74.56 -4.62 -156.77 -91.97 -245.61 -90.95 49.14 29.34 90.57 1.12 3.53 -2.42 2.84 -129.6 150.32 12.39 128.36 0.36 3.05 -2.15 2.16 -77.54 79.43 -1.61 1.65 -2.32 0.33 -101.39 12.48 -78.22 61.11 -2.28 1.75 -2.82 -0.42 -241.75 -37.67 -142.28 76.12 -2.01 1.09 -2.28 -0.44 -78.75 -14.56 -1.85 7.75c-4.54,-0.76 -8.96,-1.23 -13.23,-1.51l2.07 -8.67 0 0 -75.73 -14 -128.03 74.3 -1.97 1.15 -2.28 -0.32 -99.21 -14.63 -3.85 -0.56 -1.36 -3.57 -21.89 -56.92 -186.73 109.03 -43.7 86.05 -0.91 1.77 -1.63 0.98 -197.3 115.41 -202.66 227.65c-20.27,15.7 -31.53,29.32 -37.56,42.17l-6.49 7.3 2.46 3.8c-1.83,6.9 -2.4,13.69 -2.37,20.56l-9.22 -14.13 0 0 -45.68 51.39 -35.66 50.88 -0.51 0.69 -0.54 0.49 -141.7 125.49 -0.36 0.32 -0.43 0.33 -201.01 130.65 -1.03 0.67 -1.12 0.23 -154.12 35.75 -15.78 62.78 27.66 96.37 1.21 4.34 -3.55 2.7 -75.46 58.53 -28.45 91.47 -0.6 1.82 -1.49 1.3 -49.47 41.37 -2.26 1.86 -2.93 -0.41 -134.57 -20.51 -35.58 80.21 -1.13 2.53 -2.52 0.98 -63.25 24.89 -5.23 2.05 -2.88 -4.85 -41.52 -70.23 -98.11 102.79 -2.26 2.36 -3.18 -0.32 -125.04 -11.81 -129.95 102.96 7 61.51 40.68 48.59 107.87 76.04 37.33 13.51 6.59 -0.31c0.86,4.32 1.82,8.7 2.88,13.14l-5.74 0.28 -23.05 64.88 -0.36 1.09 -0.77 0.95 -57.26 68.88 -2.28 40.11 30.5 63.99 1.74 3.63 -2.55 3.24 -34.22 43.83 -1.25 1.6 -1.93 0.66 -40.69 12.91 -4.64 1.49 -2.75 -4.08 -55.28 -80.52 -22.84 -24.43 -38.42 -11.59 -51.58 12.08 -3.96 0.92 -2.55 -3.08 -34.1 -40.74 -2.01 -2.41 0.6 -3.01 15.18 -85.67 -26.15 -53.9 -43.11 -12.49 -93.71 33.61 -32.97 56.29 25.75 115.37 33.89 40.95 169.19 96.26 44.45 -12.96 0.29 0.01 33.37 -8.12 4.53 -1.09 2.59 3.97 41.74 65.49 3.94 6.14 -6.53 3.3 -44.75 22.75 -1.09 0.5 -1.28 0.17 -58.96 6.02 -36.7 71.52 -2.28 4.45 -40.97 -8.25 -1.31 -1 -49.97 -40.18 -123.9 40.06 -90.73 101.54 -24.07 67.89 -1.54 4.31 -4.5 0.08 -86.9 2.56 -18.94 55.03 -0.05 0.08 -20.84 55.63 128.73 69.64 2.61 1.43 0.68 2.88 16.18 67.97 0.6 2.54 -1.29 2.23 -23.06 40.19 -0.99 1.75 -1.77 0.88 -59.57 29.94 7.38 59.79 0 0 50.28 -44.28 134.47 16.2 29.36 -91.92 69.7 -22.11 65.5 16.81 67.44 78.83 57.84 -35.41 -39.5 -109.48 -8.2 -103.1 80.18 -56.32 62.7 -5.44 70.88 115.71 185.38 49.7 0.15 -0.48 0.43 -1.17 0.82 -0.96 11.73 -13.66c4.84,0.26 10.14,0.81 15.97,1.69l-16.43 19.1 0 0 186.95 85.01 97.35 92.13 76.71 -38.88 86.97 71.9 314.65 128.71 129.93 -30.32 0.68 -2.72 0.01 -0.05c4.42,0.3 8.86,0.23 13.3,-0.32l-0.16 1.97 -0.06 0.48 -0.02 0.13 98.1 17.9 52.67 151.97 62.56 23.27 2.47 -1.78 32.7 -52.51 0.89 -1.37 1.27 -0.79 136 -84.21 34.1 -77.74 0.75 -1.62 1.38 -1.05 84.22 -62.14 3.01 -2.27 3.39 1.46 82.77 34.63 29.45 -30.61 26.35 -59.42 -10.72 -69.05 -67.68 -42.72 -2.81 -1.8 -0.22 -3.36 -2.85 -42.04 -0.25 -3.39 2.67 -2.19 43.41 -34.94 32.2 -104.51 0.72 -2.26 2.04 -1.3 147.23 -94.66 5.49 -3.58 3.59 5.4 54.92 82.74 3.11 4.57 -4.07 3.9 -48.41 45.7 46.22 18.72 1.37 0.51 0.97 1.04 106.73 114.22 98.05 5.04 2.22 0.15 1.7 1.5 79.14 67.9 86.15 21.02 133.77 -56.92 -7.11 -7.96c4.89,-0.85 9.76,-2 14.58,-3.46l5.58 6.28 130.5 -43.39 28.11 -68.95 1.08 -2.6 2.65 -1.11 80.46 -31.87 2.23 -0.89 2.23 0.8 81.54 26.86 120.04 -218.32 0.96 -1.85 1.95 -0.91 118.84 -57.42 3.07 -1.5 2.92 1.53 103.74 54.28 1.03 0.43 0.62 0.65 127.89 128.34 224.86 49.1 2.13 0.41 1.45 1.56 133.36 146.4 210.14 -70.11 4.01 -1.38 2.97 3.11 83.39 89.29 113.22 8.5 131.54 -27.48 33.26 -51.87 -121.5 -106.76 -2.89 -2.52 35.35 -175.23 -8.98 -13.52c3.39,-3.65 6.39,-7.06 9.05,-10.31l8.36 12.59 208.32 -177.23 37.78 -133.72 0.54 -1.85 1.32 -1.19 140.28 -129.45 4.34 -126.06 -106.24 -119.1 -2.72 -3.06 1.47 -3.74 67.16 -171.19 -60.14 -131.17 -1.06 -2.26 0.74 -2.43 75.98 -241.27 -77 -156.76 -1.58 -3.18 1.71 -3.03 66.83 -116.49 -21.58 -106.81 -1.47 -7.46 7.52 -0.47 141.98 -9.1 86.15 -133.23 4.57 -176.65 -133.69 -63.56 -2.13 -1 -1 -2.1 -94.96 -196.88 -1.39 -2.82 1.37 -2.88 46.76 -98.32 1.36 -2.86 3.22 -0.71 211.16 -47.65 35.07 -73.56 -46.78 -190.37 -0.53 -2.02 0.81 -1.98 43.63 -109.7 1.82 -4.29 4.58 0.13 87.56 2.99 -45.24 -184.17 -0.28 -1.11 0.14 -1.23 1.49 -13.95 0 0zm-126.6 -71.12l53.11 33.17 61.47 1.17 -7.41 -93.08 -79.85 25.01 -27.32 33.73 0 0zm-104.17 -280.81l47.46 15.15 15.48 -30.48 -25.12 -42.49 -42.02 4.62 4.2 53.2 0 0z"/>
   <text data-id="fo_id=6;measures=v" x="7154.33" y="5878.68"  class="fil5 fnt0"></text>
   <text data-id="sex=Женщины;category=Рабочие;measures=m1" x="7154.33" y="5678.68"  class="fil5 fnt0"></text>
   <text x="7162.65" y="5389.78"  class="fil1 fnt1">Уральский</text>
  </g>
  <g id="_2983480246080">
   <path data-id="fo_id=4;measures=v" classs="f_sevkaz" class="f1" fill="#d3d8e0" d="M762.5 6494.66l-44.58 29.69 -14.1 105.83 69.43 158.94 -36.44 144.81 -31.51 66.19 65.28 125.52 45.32 -9.06 32.79 -36.8 46.6 38.33 52.22 28.67 74.62 -28.41 37.19 -184.53 97.92 -252.06 199.44 -126.48 47.63 -164.32 -2.67 -76.64 93.28 -44.66 -11.16 -67.41 -84.82 -127.65 -2.01 0.99c-1.18,-4.5 -2.54,-8.75 -3.99,-12.78l2.63 -1.31 25.29 -101.54 -3.64 -104.64 -45.9 -144.31 -0.69 -2.25 0.79 -2.11 41.93 -109.96 -43.52 -127.52 -0.18 -0.43 -0.09 -0.65 -12.91 -79.84 -60.81 -31.55 -2.06 -1.04 -0.98 -2.2 -22.39 -51.3 -50.97 -0.91 -3.88 -0.1 -1.79 -3.46 -76.98 -146.21 0 0 -56.12 29.77 -6.95 3.58 -2.43 -7.35 -23.17 -69.82 -48.51 11.22 -12.45 38.98 -0.75 2.28 -1.94 1.24 -52.24 34.68 31.5 41.88 3.1 4.18 -3.29 4 -50.82 61.73 18.74 45.71 3.11 7.57 -8.01 1.43 -75.96 13.93 -40.47 51.84 1.25 4.23c-2.7,2.38 -5.25,5.35 -7.71,8.98l-2.36 3.54 -1.17 -3.93 -36.18 46.41 -2.84 3.64 -4.39 -1.38 -89.9 -28.17 -2.79 -0.96 -1.28 -2.59 -36.5 -78.88 -169.57 22.98 0 0 56.56 160.48 -17.54 87.06 52.06 87.47c0.85,7.49 4.2,12.37 11.21,18.81l2.92 4.9 1.7 -0.82 6.03 5 4.42 4.49 -5.36 2.65 0 0 56.97 95.72 -19.02 112.09 9.58 24.39c1.43,9.06 4.53,18.54 8.38,27.91l-1.5 0.68 0 0 -18.84 120.49 101.24 75.77c0.89,2.94 2,5.87 3.41,8.86 2.45,5.21 17.44,31.36 23.93,42.78l-7.55 0.93 0 0 -4.24 29.33 31.28 34.65 5.62 -1.38 0.46 0.83c2.6,4.43 5.06,7.95 7.34,10.9l-7.38 1.79 0 0 11.28 71.68 0.02 53.25 0.63 0.19c-1.53,4.24 -2.87,8.56 -3.87,12.71l-3.93 -1.17 0 0z"/>
   <line class="fil7 str0" x1="1462.15" y1="6800.22" x2="1079.39" y2= "6339.44" />
   <text data-id="fo_id=4;measures=v" x="1511.17" y="7486.28"  class="fil5 fnt0"></text>
   <text data-id="$2;30" x="1522.83" y="7205.9"  class="fil5 fnt0"></text>
   <text x="1531.15" y="6917"  class="fil1 fnt1">Северо-Кавказский</text>
  </g>
  <g id="_2983480200224">
   <path data-id="fo_id=2;measures=v" classs="f_sevzap" class="f1" fill="#d3d8e0" d="M3113.68 1995.88l-13.75 9.19 32.89 49.64 66.16 71.68 141.88 69.38 1.41 0.67 0.94 1.27 41.93 54.85 142.73 41.8 20.6 -51.44 0.99 -2.33 2.28 -1.15 32.85 -16.16 4.43 -2.19 3.31 3.6 58.1 61.92 1.67 1.77 0.12 2.53 2.43 64.4 66.37 81.08 70.56 9.79 2.75 0.43 1.63 2.16 89.21 118.79 12.14 -38.95c3.78,5.88 6.73,9.92 8.56,11.65l1.28 1.07 -11.02 35.45 109.9 21.43 5.82 1.17 -0.55 5.89 -11.44 133.38 0 0 122.8 119.7 56.15 8.29 3.27 0.47 1.6 3.01 50.19 95.32 1.6 3.04 -1.55 3 -56.03 111.08 68.88 98.71 228.33 58.45 1.65 0.44 1.17 1.07 134.06 123.27 1.37 1.17 0.53 1.78 62.64 203.38 141.95 126.64 115.52 -5.31 3.79 -0.13 2.05 3.06 37.98 57.24 93.02 -64.03 -55.46 -78.22 -2.62 -3.66 2.47 -3.78 25.91 -39.57 2.62 -3.91 4.55 1.09 100.35 24.66 121.43 -48.54 1.59 -7.89c4.61,1.43 8.91,2.46 12.92,3.09l-0.68 3.37 76.71 3.25 3.78 0.17 1.77 3.35 45.52 85.3 0.99 1.87 -0.19 2.02 -10.01 88.38 14.25 -7.48c-2.31,6.49 -4.46,12.81 -6.24,18.18l-12.46 6.54 -237.92 177.91 9.92 49.16 0.31 1.37 -0.27 1.26 -29.09 144.15 26.4 31.63 99.57 -74.69 3.66 -2.73 3.85 2.45 226.42 144.13 93.49 -21.82 72.14 -109.36 2.75 -4.16 4.71 1.45 159.63 48.36 2.48 0.71 1.35 2.27 93.19 160.36 118.36 95.33 181.26 57.71 81.29 -25.62 4.27 -1.35 2.87 3.48 166.99 204.56 119.6 42.05 299.53 -336.34 0.65 -0.79 0.93 -0.54 196.5 -114.98 43.71 -86.09 0.88 -1.75 1.63 -0.97 195.1 -113.94 6.71 -3.92 2.78 7.25 23.31 60.56 93.16 13.73 128.18 -74.34 2.1 -1.29 2.34 0.47 167.57 31.05 142.16 -76.14 1.96 -0.98 2.2 0.31 241.15 37.55 77.42 -60.43 1.46 -1.12 1.82 -0.24 100.9 -12.43 73.74 -75.57 -12.4 -128.17 -0.27 -2.86 1.84 -2.1 59.67 -69.17 -23.27 -9.28 2.73 -2.86c2.45,-2.64 4.91,-5.06 7.33,-7.33l22.31 8.89 60.24 -69.85 -29.91 -92.22 -1.67 -5.2 4.81 -2.63 97.79 -52.87 0 0 -41.7 -135.5 -136.18 -223.17 -132.32 -26.68 -32.81 73.11 -26.67 114.22 -105.29 36.75 -50.15 -20.97 -45.29 45.18 -55.62 -65.54 90.63 -54.21 15.44 -76.58 -246.48 -53.36 -103.63 -115.1 -191.54 -20.51 -47.89 -103.86 113.54 12 82.37 -102.96 -142.71 -65.02 -86.5 69.56 -22.19 -69.73 -364.02 -171.23 -58.58 38.92 -45.19 -63.52 -225.81 77.71 -84.11 -122.1 49.58 -84.15 -13.09 -96.89 133.78 -16.48 98.76 103.24 73.95 -79.29 29.51 -164.36 -119.5 -197.98 -78.23 154.51 -236.32 93.61 -38.43 100.97 -118.03 70.02 -0.1 7.98c-4.2,1.98 -8.66,4.77 -13.3,8.51l0.12 -8.56 0 0 -123.93 73.53 -30.5 -100.4 72.45 0.13 -54.06 -181.2 -136.47 -5.81 -123.24 -71.93 -168.53 -8.62 -136.18 208.1 -58.45 -51.68 -49.76 -238.35 48.38 -167.79 -156.74 -13.46 -71.28 137.81 50 93.44 -79.54 70.9 -89.7 -76.09 6.3 -121.03 -3.4 0.84 -16.14 11.68c-1.4,-4.25 -3.15,-8.48 -5.05,-12.66l14.47 -10.48 1 -0.72 1.31 -0.34 8.5 -2.07 0 0 3.05 -58.83 20.28 -46.62 -32.68 -71.83 57.31 -68.17 161.08 -134.19 114.99 -13.05 84.42 -95.32 55.13 -151.77 -10.35 -30.05c4.44,-3.02 7.94,-6.17 10.68,-9.47l6.85 19.98 0 0 65.04 -172.61 29.89 67.61 -42.73 121.87 29.75 121.96 -23.28 187.34 50.63 126.15 -5.79 118.4 238.62 218.45 173.44 2.37 159.78 -145.32 71.27 -174.08 -12.13 -227.1 70.15 -311.97 -11.61 -121.9 -58.99 -156.84 7.86 -110.79 43.18 -16.62 37.52 83.65 59.26 -24.27 -29.81 -103.83 -159.26 -162.6 -259.71 -77.73 -59.97 27.79 -147.75 49.91 -17.6 105.13 -120.01 127.97 -178.26 -32.3 -48.91 41.18c-4.9,-7.91 -10.37,-13.11 -26.31,-18.08 -21.77,21.95 -36.8,48.32 -52.41,74.84 -5.84,9.95 -9.84,16.16 -12.88,20.47l-130.15 109.66 -75.87 -18.94 -110.86 46.47 -68.91 -17.47 -41.93 63.99 -43.24 52.87 -64.15 30.55 19.39 65.54 -46.02 30.53 -124.64 -46.87 -59.35 114.85 -61.62 179.61 -82.95 15.92 -332.08 -114.09 -155.15 -25.36 -5.51 35.78c-3.51,-3.3 -7.57,-6.4 -11.92,-9.27l4.39 -28.62 0 0 -115.92 -18.94 -153.33 23.44 -30.1 113.48 3.34 55.03 -48.78 26.4 -15.2 -86.4 -55.02 -14.71 -70.15 -101.16 -121.96 47.92 -66.84 -5.78 -7.84 -7.13c-11.17,-4.41 -26.44,-2.54 -42.85,2.79l-39.22 -3.38 -124.79 61.79 -80.25 74.41 -120.45 -31.53 -97.66 107.12 -89.16 -7.1 -22.45 93.29 -145.68 57.59 -17.62 123.26 38.89 76.69 -73.94 61.22 2 62 79.3 37.72 -0.13 90.58 -35.81 41.68 5.31 1.89 58.13 -3.09 2.55 -0.12 1.96 1.58 25.92 21.22 110.89 0.97 55.25 -56.66 43.9 -94.53 0.81 -1.76 1.51 -1.01 72.16 -47.95 0.89 0.85 9.06 8.45zm1063.33 -623.52c-2.17,1.18 -4.52,2.34 -7.1,3.49l-7.25 3.13 -19.78 129.14 -221.31 179.32 -4.19 3.44 2.53 4.77 21.37 40.87 1.49 2.75 106.88 21.58 30.83 73.99 1.42 3.34 3.51 0.61 110.06 20.01 2.06 8.17c4.54,-1.27 8.74,-2.72 12.56,-4.39l-2.11 -8.42 24.27 -38.54 64.08 -31.58 2.43 -1.14 0.89 -2.52 25.96 -72.36 0.23 -0.56 0.04 -0.67 12.95 -86.03 46.61 -36.47 1.86 -1.44 0.53 -2.29 17.66 -76.32 0.48 -2.15 -0.9 -2.02 -31.37 -70.23 -1.17 -2.59 -2.68 -0.96 -106.31 -37.4 -1.08 -0.4 -1.06 -0.01 -86.83 -0.3 2.44 -15.82zm369.61 723.25c-5.37,1.63 -9.7,2.4 -13.39,2.64l11.7 23.91 -55.7 28.76 -67.18 -15.19 -8.55 11.62 25.68 5.83 35.62 56.46 1.46 2.26 2.55 0.68 95.43 23.79 2.71 0.66 2.38 -1.55 53.02 -33.53c2.15,-3.62 5.56,-7.82 11.2,-13.11l-0.42 -0.09 48.09 -94.25 127.36 -96.13 73.15 -46.77 1.81 -1.21 0.8 -2.11 29.93 -80.65 0.8 -2.07 -0.66 -2.18 -16.55 -53.51 -0.85 -2.87 -2.71 -1.21 -79.14 -36.53 -3.48 -1.6 -3.17 2.3 -173.2 124.81 -0.75 0.54 -0.56 0.7 -54.87 68.8 -1.19 1.5 -0.25 1.81 -13.14 110.06 -20.24 33.14 -7.69 -15.71zm-2724.88 -1606.7l132.89 556.88 161.89 -46.83 69.21 -277.63 -48.19 -122.36 -57.54 120.95 -61.04 -58.74 -23.89 -177.09 -79.11 30.46 -94.22 -25.64 0 0zm8352.24 -74.08l-18.45 35.63 35.64 32.5 13.05 -50.78 -30.24 -17.35 0 0zm-67.77 -235.77l-16.79 55.66 40.97 61.67 38.27 75.23 22.18 -26.51 -0.97 -64.85 73.5 -2.05 83.17 47.72 68.2 -45.26 -39.38 -69.84 -39.95 -24.92 -53.01 25.86 -63.8 -4.41 -41.04 8.61 -71.35 -36.91 0 0zm19.77 -167.51l3.1 68.12 41.06 47.62 71.3 8.79 36.17 43.83 33.53 -27 -44.23 -59.53 -51.62 5.06 -89.31 -86.89 0 0zm299.17 161.59l25.32 55.67 38.96 -25.87 -44.24 -59.51 -20.04 29.71 0 0zm-3.13 266.43l1.56 48.08 34.03 -15.62 -13.95 -56.2 -21.64 23.74 0 0zm-137.28 -2.4l30.14 87.58 64.39 -40.38 -13.99 -70.31 -80.54 23.11 0 0zm221.02 353.82l21.01 49.24 34.15 -29.68 -17.81 -51.35 -37.35 31.79 0 0zm337.96 -72.4l1.53 62.12 113.96 20.23 61.22 -66.39 -25.3 -69.77 -62.79 60.45 -69.13 -33.6 -19.49 26.96 0 0zm-227.02 -352.24l84.17 112.56 -29.35 75.61 -95.59 -55.82 -51.69 -91.91 92.46 -40.44 0 0zm114.12 -21.97l-0.1 42.16 46.99 46.05 42.16 -42.15 -17.7 -65.39 -71.35 19.33 0 0zm152.38 -2.99l22.15 29.77 40.53 -19.93 -41.5 -59 -31.34 16.19 10.16 32.97 0 0zm136.49 159.67l5.9 54.58 52.46 -9.1 -6.42 -65.98 -51.94 20.5 0 0zm-240.68 92l43.76 34.12 40.06 -31.26 -32.92 -46 -50.9 43.14 0 0zm-146.05 97.08l46.39 62.79 124.88 -33.89 -8.53 -69.16 -71.8 -48.21 -78.98 43.09 -11.96 45.38 0 0zm-155.63 -22.92l26.97 33.51 62.75 -18.24 29.84 -64.29 -41.13 -19.52 -78.43 68.54 0 0zm-87.51 -54.26l35.09 49.26 69.79 -39.32 -20.97 -49.2 -45.42 2.09 -38.49 37.17 0 0zm-2091.67 1978.86l94.97 -302.83 48.24 -113.11 123.88 -89.39 130.39 -16.07 62.76 -59.38 -11.23 -91.24 78.02 75.09 83.08 8.24 32.72 -56.93 52.08 14.72 16.34 -60.25 60.25 37.59 24.52 -58.61 38.17 62.77 46.51 -41.44 26.97 -70.85 59.39 62.84 52.94 -31.7 89.55 39.25 95.42 -73.94 596.78 107.6 158.08 -48.55 37.61 -102.6 -46.27 -85.58 -149.86 7.89 -35.13 47.97 -240.13 -69.58 -87.76 -110.88 -104.32 34.02 -85.4 -59.6 -133.67 53.56 -97.7 -19.69 -57.02 30.81 -51.2 -82.31 -61.34 135.9 -74.09 -10.7 -19.6 55.32 -194.66 20.09 -59.42 -41.62 -50.56 40.6 42.25 63.59 -87.26 54.43 -108.2 -72.62 -34.33 86.25 -84.66 -21.29 -18 68.39 -130.38 37.23 -68.33 -39.2 -93.76 44.63 -22.11 88.75 61.71 92.93 -19.74 118.86 -88.05 58.53 31.55 137.66 63.48 21.3 -7.4 57.81 69.99 31.08 43.93 34.26 0 0zm-1027.56 -316.76l44.05 90.96 140.38 32.19 26.85 -49.28 7.14 -80.59 -58.55 -96.44 -114.93 15.9 -44.94 87.26 0 0zm1098.57 720.81l-78.97 -7.44 -40.54 -114.1 35.16 -90.34 102.61 -4.72 7.14 111.57 -25.4 105.03 0 0zm-273.25 -766.82l51.4 -23.56 14.76 -73.23 -50.49 -22.91 -15.67 119.7 0 0zm-2570.17 -619.4l20.89 34.92 41.23 -16.94 -1.82 -44.58 -23.49 -26.38 -27.54 25.08 -9.27 27.9 0 0z"/>
   <text data-id="fo_id=2;measures=v" x="4681.55" y="3289.2"  class="fil5 fnt0"></text>
   <text data-id="$2;40" x="4693.21" y="3008.82"  class="fil5 fnt0"></text>
   <text x="4701.53" y="2719.92"  class="fil1 fnt1">Северо-Западный</text>
  </g>
  <g id="_2983480194528">
   <path data-id="fo_id=5;measures=v" classs="f_priv" class="f1" fill="#d3d8e0" d="M3573 5646.06l-19.29 76.84 21.39 109.42 50.88 -0.6 41.14 -24.37 66.1 49.57 -13.32 48.09 -30 41.03 18.75 32.77 64.73 38.39 8.17 103.11 3.27 127.49 -46.76 70.34 18.66 68.94 89.93 -32.53 32.72 17.4 13.86 57.15 -0.88 94.09 44.48 48.79 71.17 -29.13 58.48 15.47 101.57 71.17 -14.03 51.49 15.96 46.7 53.61 21.75 55.09 -39.65 38.92 58.63 54.96 50.89 -33.61 94.67 2.7 58.54 48.64 82.22 48.68 27.97 58.59 -20.83 38.98 22.36 18.71 69.05 120.37 67.75 64.14 -30.56 71.87 -68.83 -55.03 -235.47 -7.62 -7.8 -1.48 -1.6 -0.34 -2.28 -8.49 -68.93 -0.57 -4.61 4.17 -2.07 61.92 -31.05 20.75 -36.14 -14.88 -62.64 -125.4 -67.85c-1.14,-6.83 -3.04,-13.41 -5.74,-19.57l19.69 -52.42 20.43 -59.33 1.52 -4.35 4.55 -0.12 86.88 -2.58 23.02 -64.83 0.44 -1.18 0.88 -0.98 92.81 -103.91 1.25 -1.31 1.66 -0.59 128.95 -41.66 3.33 -1.07 2.78 2.21 51.55 41.33 28.07 5.65 36.02 -70.2 1.68 -3.29 3.6 -0.34 61.37 -6.25 37.09 -18.8 -35.3 -55.44 -28.55 6.94 -47.08 13.74 -2.72 0.77 -2.43 -1.41 -172.57 -98.2 -0.98 -0.58 -0.81 -0.97 -35.69 -43.17 -0.99 -1.18 -0.36 -1.6 -26.66 -119.54 -0.56 -2.53 1.29 -2.21 35.46 -60.54 1.2 -2.09 2.28 -0.78 98.02 -35.2 2.04 -0.77 2.03 0.64 47.92 13.91 2.83 0.77 1.3 2.7 28.36 58.58 0.91 1.98 -0.37 2.12 -15.08 84.64 29.53 35.27 49.32 -11.58 1.74 -0.44 1.66 0.49 41.87 12.69 1.73 0.47 1.14 1.38 24.41 26 0.26 0.35 0.33 0.49 52.83 76.92 33.99 -10.86 30.45 -39.07 -29.4 -61.77 -0.72 -1.52 0.06 -1.71 2.48 -43.86 0.18 -2.15 1.32 -1.68 57.91 -69.72 21.91 -61.79 -33.21 -12.04 -0.8 -0.36 -0.75 -0.4 -109.24 -77.1 -0.61 -0.45 -0.66 -0.66 -42.54 -50.94 -1.29 -1.46 -0.2 -2.02 -6.98 -60.87 -1.96 0.1c4.4,-8.22 7.27,-7.07 15.29,-21.36l123.38 -97.79 2.04 -1.69 2.68 0.28 124.47 11.82 101.96 -106.84 6.12 -6.34 4.39 7.52 43.08 72.95 55.46 -21.91 36.57 -82.35 2.09 -4.63 4.94 0.76 136.61 20.84 45.65 -38.17 28.54 -91.63 0.63 -1.99 1.64 -1.26 73.57 -57.04 -26.91 -93.81 -0.48 -1.75 0.43 -1.69 17.22 -68.43 1.01 -3.93 3.91 -0.91 156.93 -36.32 199.55 -129.83 140.88 -124.73 30.42 -43.48 -117.28 -41.27 -1.73 -0.61 -1.18 -1.43 -165.4 -202.54 -78.97 24.89 -2.02 0.64 -1.99 -0.63 -190.74 -61.56 0.48 -1.31 -116.59 -93.88 -0.96 -0.72 -0.61 -1.12 -92.51 -159.16 -152.45 -46.16 -68.84 104.33 1.46 3.05c-16.54,3.47 -31.66,7.77 -41.76,10.75l-2.45 0.71 -28.65 6.7c-13.13,2.49 -26.66,4.34 -40.32,5.79l-223.05 -142.02 -100.94 75.67 -4.97 3.77 -4.03 -4.84 -32.5 -38.79 -2.06 -2.49 30.07 -149.1 -10.52 -51.9 -0.79 -4.09 3.34 -2.52 239.37 -178.96 10.85 -96.01 -42.79 -80.19 -79.22 -3.34 -125.45 50.11 -1.95 0.78 -2.08 -0.49 -97.92 -24.02 -20.88 31.89 56.73 80.01 3.85 5.45 -5.57 3.8 -103.9 71.49 -0.13 0.15 -51.83 37.74 -31 133.43 -1.46 6.41 -6.35 -1.43 -209.46 -46.35 -100.47 68.04 2.91 4.46c-5.33,-0.01 -10.48,0.14 -15.46,0.43l-46.53 -71.35 -57.15 -40.04 -2.39 -1.67 -0.4 -2.86 -8.8 -61.74 -68.93 -15.78 -32.02 13.11 -1.82 0.76 -2.07 -0.45 -237.24 -49.83 -60.58 20.06 -4.62 1.52 -2.88 -3.97 -25.74 -36.34 -73.01 -8.99 -38.91 37.22 -1.89 1.89 -2.73 0 -50.73 -0.08 -151.04 54 -1.61 0.6 -1.72 -0.26 -118.83 -19.86 -103.7 36.63 0 0 11.51 74.99 0 0 8.09 51.52 0.53 0.82c-3.08,3.37 -6.07,6.87 -8.94,10.45l-0.34 -0.52 0 0 -79.99 35.4 -155.3 90.87 0.95 6.63 -12.81 3.94 -1.21 -8.29 0 0 -39.36 -6.22 -1.2 -0.2 -1.06 -0.66 -40.23 -23.7 -92.33 73.34 -35.16 91.29 -30.76 143.34 -0.44 2.02 -1.56 1.46 -30.34 28.06 -1.16 1.09 -1.51 0.48 -18.24 5.11 2.39 6.25 -0.96 0.26c-3.24,0.82 -7.23,2.17 -11.65,3.92l-2.6 -6.76 -160.46 45.65 -0.98 0.3 -0.98 -0.05 -87.17 -2.39 -27.76 104.27 -0.72 2.65 -2.35 1.34 -27.45 16.14 -10.22 85.33 32.18 65.96 62.56 26.9 1.77 0.75 1.07 1.58 94.59 137.78 1.62 2.25 -18.28 90.64 -2.08 1.55 -63.8 48.43 -14.27 54.88 41.34 11.46 52.61 -11 9.44 -2.01 -1.58 9.61 -15.5 94.97 20.9 48.54 65.91 27.57 4.85 2.09 -0.88 5.19 -28.12 158.6 0 0 53.72 76.7 -21.03 68.19 -28.61 52.24 24.19 77.41 83.68 -19.39 53.75 -68.94 55.1 -39.56 103.74 42.66 69.03 -36.83 42.45 4.9 26.43 30.78 109.35 14.78 84.29 -4.77 48.99 -0.88 14.06 12.58z"/>
   <text data-id="fo_id=5;measures=v" x="4092.23" y="5223.34"  class="fil5 fnt0"></text>
   <text data-id="$2;50" x="4103.89" y="4942.96"  class="fil5 fnt0"></text>
   <text x="4112.21" y="4654.06"  class="fil1 fnt1">Приволжский</text>
  </g>

  <g id="_2983480250432">
   <path data-id="fo_id=3;measures=v" classs="f_ugn" class="f1" fill="#d3d8e0" d="M447.21 4337.61l92.48 -72.25 -123.77 -255.4 157.01 -263.66 -59.75 -73.7 -71.18 31.08 -212.42 -218.1 -41.24 43.59 -30.91 201.49 -113.7 80.92 -2.7 142.26 164.04 23.37 134.98 264.15 107.16 96.25zm432.9 252.01l16.38 -3.59 47 -150.47 104.06 141.59 4.93 17.86c5.29,2.25 10.54,4.77 15.8,7.63l-3.74 -13.55 64.75 -32.75 85.57 78.87 63.41 -27.03 -165.55 -149.32 105.33 -73.03 183.1 62.34 56.23 134.54 119.85 -19.35 89.98 -105.05 57.11 4.27 54.46 -54.19 107.2 25.17 8.44 -34.59 0 0 73.8 60.8 58.88 57.18 3.18 3.05 4.05 -1.77 69.54 -29.94 83.31 21.42 -1.05 11.45c4.39,-0.74 9.11,-1.47 13.47,-2.04l0.88 -9.6 106.9 -38.95 2.93 -1.07 1.02 -2.91 23.6 -66.47 97.82 33.66 1.41 0.41 1.44 -0.05 54.98 -5.77 24.04 88.65 0.72 2.61 2.23 1.35 88.93 53.55 -10.37 86.27 -0.17 1.91 0.86 1.72 34.06 69.95 1.1 2.18 2.26 0.98 63.05 27.16 91.88 133.79 -16.22 80.42 -63.62 48.21 -1.86 1.41 -0.54 2.25 -16.47 63.4 -1.68 6.31 6.3 1.7 49.17 13.59 1.51 0.46 1.59 -0.29 44.79 -9.36 -14.3 87.42 -0.3 1.88 0.77 1.76 22.72 52.78 1.05 2.48 2.43 1.01 63.54 26.62 -26.36 148.76 -41.22 4 -113.54 6.08 -112.26 35.4 -35.67 86.98 -125.49 15.15 0 0 -1.02 -3.18c-4.17,1.17 -8.59,1.42 -13.58,1.07l1.42 4.39 -55.69 12.19 -42.98 12.42 58.03 128.3 -107.34 65.38 -22.44 57.08 69.61 32.12 35.46 75.98 -118.93 302.12 -75.94 -0.81 1.21 119.85 -293.86 -51.97 -101.28 -61.87 0 0c-19.95,-44.63 -43.87,-65.81 -16.44,-4.48l-113.51 26.92 -108.17 -24.21 0 0 -11.48 -69.51 -0.27 -1.45 -0.74 -1.16 -87.17 -131.27 25.57 -102.6 0.21 -0.89 -0.04 -0.84 -3.71 -106.48 0 -0.86 -0.31 -0.93 -45.53 -143.04 41.95 -109.95 0.9 -2.25 -0.8 -2.29 -44.15 -129.23 -13.31 -82.62 -0.54 -3.32 -2.99 -1.52 -61.72 -31.94 -23.15 -53 -1.69 -3.95 -4.21 -0.09 -51.24 -0.96 -35.67 -67.62c35.62,-27.41 28.83,-38.83 -6.22,-11.85l-35.14 -66.81 2.51 -9.54c-3.13,-2.01 -6.97,-4.24 -11.85,-6.99l-3.39 12.88 -52.5 27.78 -22.58 -68.12 -1.89 -5.72 -5.85 1.34 -58.08 13.49 -3.7 0.81 -1.14 3.62 -12.86 40.28 -56.22 37.37 -5.89 3.89 4.26 5.6 32.6 43.31 -49.99 60.68 -2.57 3.09 1.5 3.63 17.17 41.84 -70.39 12.97 -2.43 0.44 -1.58 2.01 -85.43 109.44 -82.77 -25.97 -37.34 -80.65 -2.06 -4.36 -4.8 0.67 -177.13 23.97 -24.22 -68.74 -60.61 13.19 -20.15 -43.95 67.22 -207.52 36.41 -126.63 -3.25 -145.61 21.03 -86.34 -47.28 -53.05 -6.88 -55.73 47.42 -37.53 17.58 -123.31 0 0 90.64 -54.16 64.52 183.3 61.38 -52.89 133.77 19.74 50.32 39.31z"/>
   <text data-id="fo_id=3;measures=v" x="1571.73" y="5423.39"  class="fil5 fnt0"></text>
   <text data-id="$2;60" x="1583.39" y="5143.01"  class="fil5 fnt0"></text>
   <text x="1591.71" y="4854.11"  class="fil1 fnt1">Южный</text>
  </g>
  <g id="_2983480240608">
   <path data-id="fo_id=7;measures=v" classs="f_sib" class="f1" fill="#d3d8e0" d="M6731.29 7189.19l47.43 24.77 -14.82 91.18 -38.34 28.55 8.25 66.91 -85.77 66.01 2.01 62 142.68 64.99 -9.17 81.47 72.4 18.26 52.89 25.18 43.05 73.84 -93.4 50.02 -11.25 55.75 84.98 -8.22 61.93 52.38 65.48 -1.33 61.39 -34.71 155.49 2.98 18.34 -26.95c2.72,4.11 5.13,7.87 7.93,11.76l-11.49 16.89 0 0 35.74 8.05 3.21 2.59c32.43,25.97 61.79,45.33 87.03,67.05l-35.21 24.6 100.59 279.77 0.4 -0.14c-1.15,8.38 -1.46,17.07 -0.47,26.03 0.21,1.84 1.06,5.11 2.49,9.57l5.26 819 93.33 4.34 80.94 -77.88 54.25 36.29 -1.52 97.55 170.39 143.12 160.96 -25.56 73.05 50.97 33.47 129.89 14.34 1.21 -0.39 13.21 -12.83 -1.09 0 0 -11.97 122.22 98.72 85.18 -20.37 119.08 106.55 46.79 33.98 64.89 138.72 -40.91 6.79 91.99 56.21 134.54 122.59 39.21 55.12 -75.87 168.58 26.74 127.43 -60.05 1.45 -27.19c4.28,0.65 8.64,1.43 13.12,2.31l-1.12 20.57 0 0 49.47 -8.02c111.48,31.7 42.98,17.09 183.2,-6.08 67.4,-11.14 62.43,-4 130.88,7.12 57.41,9.34 65.76,-8.98 133.13,-6.64 113.4,3.95 118.52,8.88 161.92,-7.86l5.16 12.57 229.74 100.67 -4.36 111.46 81.4 63.51 248.54 79.14 98.19 34.3 42.37 59.3 85.73 -11.71 85.76 -48 78.17 -118.24 -65.93 -121.96 42.71 -158.08 59.23 -6.22 18.27 -72.42 73.79 11.31 36.28 -74.38 -28.67 -100.63 -1.23 -4.36 3.56 -2.7 62.79 -47.6 -2.6 -56.31 -0.14 -3.74 3.08 -2.01 43.98 -29.28 -0.73 -26.64c7.25,-3 10.45,-7.7 12.82,-13.57l0.42 14.2 68.87 15.6 140.4 -62.89 5.94 -2.73 2.75 5.97 56.36 121.66 198.04 233.98 118.33 23.88 1.43 2.85 65.99 131.77 0.83 1.65 -0.22 1.88 -7.51 89.69 118.51 48.89 3.85 1.62 0.2 4.17 3.13 67.57 114.73 -14.12 36.33 -69.42 -116.32 -23.46 -1.05 -4.14 -14.11 -58.35 -1.42 -5.74 5.63 -1.99 59.83 -21.31 1.24 -0.46 1.33 0.11 75.28 4.31 167.47 -71.89 68.86 -70.08 0.58 -0.61 0.78 -0.44 128.8 -76.42 39.05 -68.14 0.38 -0.6 0.48 -0.47 86.21 -97.34 0.19 -0.21 102.09 -104.56 104.38 -170.59 0 0 80.05 -137.68 -27.64 -134.21 -0.32 -1.7 0.5 -1.62 40.42 -129.59 0.56 -1.93 1.61 -1.3 85.33 -67.88 -67.9 -85.35 -1.48 -1.89 0.05 -2.33 1.96 -80.4 0.14 -7 7.02 0.57 145.01 10.85 33.86 -78.71 2.96 -6.96 6.48 3.87 70.16 41.91 140.83 -17.34 52.32 -76.92 4.1 -5.98 5.55 4.62 59.86 49.18 70.14 14.15 1.37 3.1 34.49 74.46 294.91 -19.04 55.02 -113.33 2.64 -5.38 5.59 2.03 54.18 19.84 86.68 -65.24 12.05 -9.03 -1.49 14.99 -8.78 88.03 165.16 60.59 114.33 -49.52 30.54 -129.28 -91.43 -97.12 -2.29 -2.31 0.54 -3.15 23.99 -166.14 0.53 -3.41 3.11 -1.54 68.52 -33.66 1.96 -0.96 2.08 0.34 146.41 25.12 -74.24 -337.77 -63.17 -65.67 -140.51 32.54 -7.1 1.7 -0.85 -7.35 -18.6 -150.55 -189.01 -123.66 -106.28 -3.65 -230.07 312.57 -0.52 0.66 -0.73 0.54 -133.37 104.25 -5.66 4.38 -4.04 -5.91 -62.19 -93.65 -67.58 78.45 -2.41 2.78 -3.73 -0.61 -149.06 -23.88 -115.88 56.56 -5.35 2.58 -3.15 -5.11 -75.44 -121.31 -1.53 -2.49 0.77 -2.74 71.21 -260.38 0.29 -1.01 0.69 -0.98 128.11 -185.76 -106.22 -56.67 -2.65 -1.44 -0.67 -2.95 -29.75 -130.85 -0.48 -2.19 0.89 -2.08 75.01 -160.99 -81.38 -70.07 -3.05 -2.63 0.97 -3.93 39.53 -165.07 -41.61 -143.61 -61.64 26.85 -2.12 1 -2.21 -0.63 -76.79 -21.72 -5.96 -1.68 18.84 -93.54 3.46 -1.27 68.25 -26.32 -34.79 -85.93 0 0 -21 15.6c0.43,-5.52 0.9,-11.39 1.63,-17.63l13.82 -10.28 -26.33 -51.16 -84.65 34.62 -1.37 0.57 -4.28 -0.19 -1.9 -2.25 -60.89 -71.44 -174.62 -35.21 2.25 -7.09 29.8 -93.24 0.61 -1.91 1.51 -1.25 124.51 -100.87 45.54 -73.09 -55.69 -57.83 -2.38 -2.52 18.36 -91.03 -44.19 -73.15 -1.75 -2.93 1.3 -3.11 50.55 -118 -55.52 -63.76 -4.69 -5.39 5.8 -4.27 120.83 -89.3 56.39 -469.43 -79.7 -201.09 63.88 -18.18 162.08 -85.34 2.52 -1.31 2.57 0.84 80.23 26.27 58.89 -138.3 0.51 -1.2 0.86 -0.87 52.89 -52.66 26.51 -79.2 0.87 -2.53 2.36 -1.26 198.17 -101.18 -55.65 -102.86 -1.15 -2.1 28.24 -140.03 -106.39 -240.55 -0.62 -1.25 0 -1.47 1.21 -111.32 -33.42 -70.1 -1.08 -2.27 0.71 -2.35 17.15 -59.96 -101.11 27.36 -120.57 59.03 -151.22 12.99 -75.32 86.26 31.53 -138.59 349.4 -241.13 218.46 -256.69 125.09 -242.92 -171.62 -299.15 -207.45 -49.04 -94.19 89.66 -86.41 -2.89 98.5 -164.96 -166.4 -55.29 71.84 -68.87 -86.87 -108.09 -101.07 15.89 -194.65 192.61 8.16 139.32 -162.26 -21.82 -4.97 42.46 41.62 99 -109.96 -47.55 -70.44 43.75 -127.41 -51.02 -5.43 -62.71 -188.74 -34.44 -18.29 108.67 -232.66 -14.34 -177.76 90.94 -119.08 -20.33 -102.53 59.03 -69.88 148.95 46.42 147.08 -117.03 5.39 -286.13 -108.46 -169.92 -37.88 -71.19 83.48 -56.1 242.32 86.85 126.26 27.67 132.39 -149.72 -30.22 -80.38 -266.24 -95.6 -13.49 -1.35 12.35 47.09 191.56 2.01 8.51 -8.67 -0.31 -91.61 -3.13 -41.22 103.4 46.83 190.59 0.57 2.32 -1.01 2.12 -37.39 78.63 -1.39 2.89 -3.15 0.7 -211.22 47.62 -44.02 92.51 92.52 191.93 135.51 64.44 3.86 1.84 -0.11 4.34 -4.76 184.83 -13.75 21.25 0.02 -0.15 -76.22 117.76 -1.82 2.85 -3.38 0.2 -137.71 8.85 20.58 101.8 0.48 2.46 -1.2 2.11 -66.37 115.67 76.71 155.99 1.18 2.39 -0.77 2.52 -76.01 241.32 60.22 131.41 1.17 2.56 -0.98 2.64 -66.68 169.98 105.27 118.11 1.75 1.87 -0.11 2.71 -4.46 131.39 -0.04 2.83 -2.05 1.91 -140.95 129.92 -37.85 133.88 -0.56 1.93 -1.53 1.32 -213.72 181.89 -33.94 168.29 122.81 107.86 4.3 3.75 -3.06 4.77 -37.8 58.94 -1.53 2.35 -2.74 0.63 -135.19 28.26 -0.88 0.12 -0.91 -0.06 -108.93 -8.16 0.85 11.11 -13.5 -2.22 -1.03 -13.18 0 0 -80.69 -86.43 -196.04 65.42c-8.3,-0.49 -16.6,-0.9 -24.95,-1.24l-131.16 -143.86 -224.7 -48.98 -1.97 -0.5 -1.35 -1.3 -128.59 -129.04 -99.86 -52.18 -113.98 55.03 -121.7 221.38 -2.66 4.83 -5.18 -1.73 -84.48 -27.88 -75.55 29.98 -28.21 69.13 -1.18 2.91 -2.91 0.98c-64.17,21.33 -167.9,58.62 -196.54,70.8 -26.42,13.34 -54.34,30.88 -85.6,33.74 -18.08,1.66 -37.91,-6.09 -57.68,-10.67l-35.37 -8.66 -1.57 -0.36 -1.2 -1.03 -78.56 -67.45 -98.5 -5.12 -2.62 -0.14 -1.84 -1.95 -107.51 -115.05 -54.4 -22.01 -9.53 -3.84 7.47 -7.1 51.83 -48.92 -48.29 -72.65 -139.76 89.85 -31.99 104.15 -0.62 1.93 -1.6 1.21 -42.28 34.07 2.4 35.21 67.36 42.52 2.57 1.6 0.44 3 11.48 73.98 0.28 1.83 -0.8 1.8 -27.62 62.25 -0.44 1.1 -0.86 0.81 -33.38 34.74 -3.13 3.28 -4.16 -1.76 -83.49 -34.92 -79.66 58.85 -34.19 78.07 -0.83 1.86 -1.73 1.15 -136.58 84.49 -32.28 51.81 0 0zm3600.16 -3901.35l43.7 89.19 44.93 -9.65 9.12 -110.31 -36.94 -29.87 -60.81 60.64 0 0zm2721.18 437.22l19.09 37.6 100.33 -36.83 -9.26 -57.72 -55.35 -13.47 -40.93 41.77 -13.88 28.65 0 0zm-2146.41 -1016.68l29.46 30.28 56.46 -20.45 -18.58 -56.06 -40.61 -21.24 -48.55 27.56 21.82 39.91 0 0zm1095.83 -51.75l18.64 30.87 36.09 -22.15 -27.27 -43.86 -27.46 35.14 0 0zm79.68 -126.32l42.52 47 41.31 -14.28 -15.09 -59.51 -68.74 26.79 0 0zm804.13 -244.6l0.35 54.3 91.22 41 3.09 -37.82 -83.77 -77.87 -10.89 20.39 0 0zm-301.35 -354.57l-54.58 192.38 -101.01 119.72 7.68 107.76 141.3 -73.17 129.84 17.14 80.9 -53.72 40.22 -154.63 -53.27 -105.64 -73.06 48.54 -25.6 -41.34 23.23 -92.48 -115.65 35.44 0 0zm-419.39 -172.73l91.02 -137.59 183.87 -48.78 7.14 121.26 46.06 -4.29 16.58 -48.64 61.14 89.14 -26.21 96.42 -74.83 79.82 36.36 66.09 -30.09 82.08 -67.36 20.32 -106.71 -109.68 -91.49 -117.89 -57.29 -40.92 11.81 -47.34 0 0zm-77.82 -241.68l126.29 79.72 -32.68 61.18 -69.98 22.06 -78.51 -81.37 -2.96 -63.87 57.84 -17.72 0 0zm86.63 -93.22l90.91 -81.11 -0.32 -88.23 78.7 -31.58 83.5 -55.5 64.17 85.27 18.48 132.52 15.12 59.58 -79.56 24.59 -13.57 67.36 -194.26 44.42 -74.56 -100.91 11.39 -56.41zm-59.13 -267.37l125.51 50.2 -10.7 -103.83 -91.63 -16.26 -23.18 69.89 0 0zm-570.15 -119.03l51.74 28.26 63.73 -3.59 -19.6 -86.22 -37.56 -44.62 -37.63 23.95 -16.67 48.75 -4.01 33.47 0 0zm-495.13 1517l-18.71 28.02 19.34 43.14 34.83 -24.72 8.71 -33.82 -44.17 -12.62 0 0zm24.11 446.02l25.82 29.49 37.05 -35.51 -39.82 -43.56 -28.78 12.88 5.73 36.7 0 0zm-63.01 62.05l23.34 23.38 22.33 -27.27 -35.91 -35.25 -9.76 39.14 0 0zm-96.47 116.98l22.95 25.21 24.78 -30.53 -23.64 -40.25 -24.09 45.57 0 0zm741.23 -809.39l55.97 47.42 14.42 -49.05 -31.61 -56.07 -35.65 19.89 -3.13 37.81 0 0zm-437.74 -1068.15l-16.11 39.27 33.52 50.66 58.95 13.22 7.95 -53.23 -29.83 -62.26 -54.48 12.34 0 0zm-408.65 1796.52l39.43 54.66 38.83 -25.78 -2.43 -52.85 -39.12 -19.1 -36.71 43.07 0 0zm-213.4 -267.33l22.53 45.68 39.2 -27.61 -3.45 -56.78 -43.85 4.25 -14.43 34.46 0 0z"/>
   <text data-id="fo_id=7;measures=v" x="9796.65" y="8101.23"  class="fil5 fnt0"></text>
   <text data-id="max_example_sex=Мужчины;max_example_category=Служащие;measures=m2" x="9796.65" y="7901.23"  class="fil5 fnt0"></text>
   <text x="9804.97" y="7612.33"  class="fil1 fnt1">Сибирский</text>
  </g>
  <g id="_2983480238464">
   <path data-id="fo_id=8;measures=v" classs="f_daln" class="f1" fill="#d3d8e0" d="M13247 3567.51l67.48 79.98 48.59 -50.74 21.99 -45.62 -39.01 -36.96 -52.02 -18.65 -47.03 71.99 0 0zm4836.91 -274.73c9.88,-36.12 31.55,-58.44 59.75,-74.7l86.81 -108.31 208.5 -99.3 45.64 -226.33 155.1 147.2 93.44 -31.84 128.13 11.36 41.32 -133.01 -120.4 -103.99 -96.08 9.61 -75.71 -145.75 168.69 -100.06 106.61 -7.48 0.8 -75.9 198.92 -213.55 618.16 -190.58 422.42 -172.07 302.82 151.64 117.76 -26.97 -182.36 -120.13 101.15 -88.31 46.23 -139.22 331.05 -114.44 77.11 156.91 -95.54 42.32 77.25 84.42 -87.25 72.99 170.55 70.66 21.5 91.28 137.23 2.28 -20.42 119.09 -118.37 -42.01 45.1 81.62 -280.9 135.39 -143.46 -43.44 -97.55 52.82 -14.89 127.42 -66.29 95.32 -59.81 -99 -60.61 31.24 -74.35 -98.3 -55.26 130.15 56.24 98.29 116.39 -20 -14.8 91.21 62.75 -23.54 41.72 26.52 -25.41 252.16 -64.28 84.81 -122.56 15.17 -27.38 135.78 99.58 27.35 33.51 -94.71 127.52 14.86 70.4 -61.9 451.93 130.98 11.61 121.94 -281.63 120.78 92.54 80.24 -38.88 356.32c6.01,22.85 2.53,43.64 -7.49,68.82l-56.1 514.4 51.06 267.6 -178.28 -32.35 -142.95 97.98 -70.85 333.6 -125.9 -148.57 13.5 292.57 -98.22 1.93 -44.14 146.93 141.24 521.28 71.73 21.7 30.08 -77.28 114.94 23.19 30.21 146.96 2.31 -1.7 96.61 94.6 77.4 -24.27 104.21 147.82 -94.06 35.38 -37.48 -83.62 -47.44 19.43 109.53 337.33 157.31 82.47 2.65 94.73 -101.8 73.67 -35.83 159.44 152.11 269.85 -68.99 36.82 -44.84 168.51 91.75 138.07 5.99 167.89 -42.36 353.84 -831.14 -837.98 -135.67 -233.79 0 0.03 -114.39 -197.18 22.6 -201.98 -82.61 -147.06 52.95 -47.32 -8.2 -85 93.48 -68.1 -24 -222.28 -6.66 -218.73 44.43 -328.06 -41.65 -117.07 111.91 -267.32 -56.39 -25.89 23.13 -96.79 -61.97 -16.11 -116.84 -121.39 0.14 -108.67 118.01 -117.55 -182.61 24.77 -65.46 122.68c9.52,22.42 19.16,45.29 28.2,68.2l102.16 188.21 -68.77 42.31c-1.04,2.6 -2.16,5.13 -3.38,7.64 -2.6,5.3 -6.31,10.22 -10.91,14.82l4.05 111.33 -7.21 161.61 -22.41 75.18 -108.02 -3.61 -108.23 -235.64 -55.92 97.45 -73.79 -11.31 -166.1 158.53 -52.39 152.52 23.26 225.75 -51.43 362.84 61.84 88.59 91.39 -75.81 70.87 79.52 -101.16 88.3 -108.62 17.96 -67.91 192.83 -136.63 102.93 -63.31 -81.61 103.23 -98.8 -108.63 -18.28 -139.45 80.59 -163.06 17.87 -7.92 183.19 -91.27 3.3 -73.24 39.63 -105.6 42.66 0 0 -2.24 -6.75c-3.92,2.27 -7.89,4.35 -11.93,6.23l1.83 5.51 -55.55 22.45 21.47 55.06 -18.9 39.63 -107.18 -43.31 -421.22 273.81 -7.95 165.09 -85.85 138.43 8.04 175.58 -89.43 192.15 -126.07 409.39 -251.41 384.09 -31.53 120.47 124.65 46.85 172.15 -63.08 30.27 227.18 109.55 -93.95 56.88 113.01 118.2 -262.49 200.05 -57.46 224.87 88.83 102.26 67.71 -63.6 81.45 39.65 73.18 138.42 92.83 8.44 5.62 -60.21 -276.7 -94.55 -105.97 33.5 -76.61 52.96 25.16 43.96 -38.2 -43.77 -106.65 -98.67 -103.25 27.25 -63.36 68.25 -15.23 67.32 133.17 167.64 175.08 88.74 296.92 253.69 341.04 379.01 384.49 -197.12 -28.96 -116.36 38.12 19.95 152.66 42.13 240.35 116.08 124.92 107.84 76.08 111.48 22.5 44.27 175.63 -84.17 -67.72 -41.81 9.64 -102.39 -13.43 -4.31 111.52 -39.29 140.67 -95.75 -189.68 7.78 -128.84 -113.36 -84.46 -11.73 -85.73 -13.05 -96.84 -85.55 -97 -58.28 -160.25 -82.48 -219.59 -75 -149.21 -31.06 -187.38 -182.94 -152.89 2.54 12.81 20.93 104.28 0.9 300.93 50 93.47 119.13 451.54 19.26 137.91 -114.51 404.34 -1.66 -0.87 -1.83 13.97 1.19 0.61 -24.5 372.41 -135.58 295.11 -171.61 581.47 -151.51 194.08 -210.54 109.71 -249.99 -54 -174.35 109.78 13.43 -102.4 -209.86 -324.93 135.46 -186.47 290.47 33.15 -47.89 -140.07 95.3 -403.76 0 0 4.24 -0.09 -1.35 -13.2 -2.23 0.03 -23.96 -173.54 11.33 -20.65c-0.27,-54.83 5.16,-107.06 22.19,-148.84l-38.44 -105.26 0 0 18.58 -39.33c-5.11,2.05 -10.86,4.13 -17.54,6.24l-12.47 26.34 -105.83 24.91 -217.65 162.63 -50.98 91.23 -259.9 67.13 -91.75 -119.98 -70.97 -185.58 0 0 17.96 -18.15c-4.56,-1.48 -9.11,-3.13 -13.68,-4.95l-15.54 15.7 -73.52 -5.13 -123.87 -68.47 -76.68 20.84 -88.39 -64.95 -169.34 31.04 -314.05 -490.9 -256.44 -381.42 -226.37 -9.48 -168.47 -99.16 -261.87 74.11 0 0 -5.06 -12.36c-4.39,0.57 -8.97,1.01 -13.73,1.43l6.29 15.35 -189.04 81.66 -129.17 155.12 129.51 40.62 29 179.79 -112.99 75.05 -125.97 336.99 26.27 139.31 -142.93 61.78 -81 132.26 -357.17 -133.71 -103.21 62.53 -50.69 -71.79 -211.05 -31.67 -177.75 109.1 -51.69 94.65 -98.24 -16.21 -343.63 122.72 -447.66 -133.7 -36.71 -123.42 -25.63 -6.32c-21.02,2.75 -36.51,2.3 -55.65,-13.65l-81.02 -20.03 -27.07 -81.53 -162.21 -21.79 -143.35 -79.66 -222.44 78.33 -139.96 -24.58 -177.42 -144.45 -12.12 -227.14 -258.95 -117.49 -271.2 -178.49 0 0 -27.52 -96.54 61.96 -46.96 2.77 -2.13 -0.21 -3.47 -2.57 -55.93 43.93 -29.22 3.02 -2.04 -0.14 -3.61 -0.39 -15.74 67.84 15.3 2.11 0.52 1.98 -0.95 136.43 -61.03 53.97 116.45 0.36 0.77 0.6 0.75 200.19 236.44 1.52 1.79 116.41 23.5 63.61 127.11 -7.74 92.75 -0.46 4.84 4.54 1.86 119.04 49.13 3.25 70.5 0.28 7.05 7.11 -0.8 125.21 -15.46 3.42 -0.48 1.64 -3.04 40.67 -77.56 198.39 -43.86 1.36 -0.27 1.22 -0.86 69.78 -52.57 1.46 -1.11 0.72 -1.73 43.43 -111.01 74.59 21.96 3.53 1.06 2.76 -2.54 84.58 -77.38 107.39 -10.92 2.47 -0.3 1.71 -1.84 89.79 -96.58 1.1 -1.25 0.49 -1.53 15.21 -58.61 54.86 -2.51 3.38 -0.15 1.82 -2.85 32.12 -49.04 1.36 -2 -0.24 -2.29 -6.08 -57.67 21.73 -25.47 58.18 -35.63 1.34 -0.79 0.79 -1.26 48.48 -75.34 1.25 -1.85 -0.27 -2.24 -7.57 -89.57 20.71 -157.18 60.44 -153.52 0.33 -0.92 0.1 -1.15 2.88 -69.73 0.25 -5.04 -4.77 -1.57 -59 -19.32 -4.12 -1.28 -2.94 3.28 -62.69 72.44 -0.85 0.92 -0.33 1.09 -64.06 171.47 -11.81 20.22 -24.3 -118.08 39.31 -126.03 88.89 -70.73 5.18 -4.09 -4.08 -5.22 -70.48 -88.59 1.68 -71 142.8 10.65 4.66 0.43 1.9 -4.41 32.76 -76.11 65.6 39.23 1.95 1.13 2.25 -0.27 146.16 -18.06 2.92 -0.32 1.68 -2.48 49.95 -73.43 55.51 45.74 1.34 1.14 66.75 13.45 34.99 75.48 1.88 4.14 4.5 -0.35 303.18 -19.55 3.86 -0.2 1.63 -3.52 54.23 -111.39 51.9 19.06 3.35 1.21 2.91 -2.17 77.52 -58.34 -7.53 75.59 -8.17 7.72c4.79,1.71 9.21,3.57 13.36,5.59l2.67 -2.52 168.72 61.86 2.37 0.86 2.47 -0.96 119.71 -51.9 3.03 -1.34 0.74 -3.2 32.22 -136.03 0.76 -3.44 -2.45 -2.58 -91.61 -97.37 23.08 -159.55 63.4 -31.19 149.98 25.64 4.36 14.33 11.29 -8.29 -4.09 -13.41 -76.67 -348.93 -0.43 -1.83 -1.25 -1.35 -67.12 -69.72 -2.66 -2.71 -3.59 0.81 -136.99 31.79 -18.03 -146.38 -0.41 -3.06 -2.56 -1.67 -193.05 -126.32 -1.5 -1.04 -1.86 -0.06 -111.69 -3.78 -3.47 -0.08 -2.03 2.78 -231.63 314.57 -127.02 99.19 -63.12 -94.97 -4.88 -7.22 -5.67 6.57 -70.95 82.39 -147.48 -23.69 -2.15 -0.35 -1.79 0.9 -112.44 54.84 -70.73 -113.85 70.2 -256.45 131.68 -190.96 4.18 -6.1 -6.43 -3.51 -110.1 -58.75 -28.69 -125.75 76.13 -163.43 2.11 -4.59 -3.79 -3.21 -82.02 -70.76 38.92 -162.79 0.42 -1.76 -0.51 -1.62 -44.17 -152.55 -2.04 -7.18 -6.93 2.97 -66.28 28.96 -68.57 -19.45 15.01 -74.47 71 -27.3 6.26 -2.46 -2.47 -6.22 -38.54 -95.32 0.32 -0.26 -2.48 -5.02 -31.69 -61.5 -2.85 -5.4 -5.63 2.28 -85.7 35.13 -59.35 -69.58 -1.53 -1.81 -164.56 -33.16 26.98 -84.3 123.75 -100.35 0.86 -0.7 0.56 -1.03 48.96 -78.3 2.68 -4.39 -3.53 -3.74 -56.95 -59.14 17.99 -89.19 -1.25 -2.14 -43.79 -72.54 50.84 -118.74 1.63 -3.81 -2.7 -3.1 -53.49 -61.5 117.36 -86.76 2.31 -1.78 0.29 -2.72 57.03 -473.91 0.16 -1.65 -0.62 -1.62 -75.5 -188.89 51.03 -14.51 0.69 -0.19 0.6 -0.33 160.25 -84.36 83.22 27.22 5.7 1.9 2.43 -5.59 60.73 -142.56 53.06 -52.9 1.08 -1.12 0.56 -1.52 26.19 -78.09 201.72 -102.99 6.03 -3.12 -3.23 -5.94 -57.74 -106.7 28.12 -139.43 -0.85 -1.94 -106.67 -241.15 1.18 -111.37 -0.01 -1.54 -0.63 -1.42 -33 -69.2 18.74 -65.28 106.26 -28.77 84.36 -59.1 48.71 64.2 -0.93 112.15 35.66 -68.93 106.05 -94.56 316.12 67.39 -30 59.13 102.25 103.99 336.53 -69.82 77.76 -259.7 157.24 100.53 163.73 -21.33 91.21 69.11 109.57 264.89 -107.36 47.2 210.66 285.26 161.49 61.54 70.2 -348.19 228.41 89.53 73.36 -148.25 130.88 69.9 107.93 3.61 -17.98 -90.53 48.8 -44.54 135.19 -5.34 -63.87 -114.34 13.39 -102.43 -76.7 20.77 -24.23 -77.32 116.45 -74.38 -50.02 -93.4 376.32 -105.28 116.36 16.21 -127.62 75.71 1.26 83.6 86.44 -51.41 73.12 14.77 -31.59 156.65 129 -82.66 -18.45 -213.89 126.91 -72.26 185.16 51.85 -96.13 63.94 45.08 63.5 55.12 -39.66 40.34 51.64 70.46 -61.91 110 11.32 100.26 78.17 96.07 -9.59 83.21 -160.76 169.47 -139.76 224.52 -88.81 136.44 41.99 112.52 160.39 213.35 -69.28 8.31 -10.38zm-377.02 -210.41l-27.66 46.28 38.08 38.15 55.63 -19.24 -5.12 -65.06 -60.93 -0.13 0 0zm3545.39 2936.45l28.02 70.5 149.51 55.52 68.88 -19.93 -24.8 -72.66 -111.03 -36.5 -110.58 3.07 0 0zm-926.8 -660.54l-65.24 113.72 119.5 204.5 71.89 -244.82 -76.31 -54.86 -49.84 -18.54 0 0zm-88.63 5505.53l9.2 42.54 54.68 -7.73 -0.1 -56.41 -20.14 -44.81 -33.49 21.46 -10.15 44.95 0 0zm-226.92 143.29l27.32 -6.01 46.4 -178.59 38.36 -29.86 15.5 -45.97 -28.79 -27.73 -55.94 13.73 -32.48 16.45 9.07 84.35 -29.67 100.57 10.23 73.06 0 0zm350.18 -790.1l50.32 12.56 2.67 70.24 -48.58 50.38 -62.51 59.58 -20.05 75.27 -32.98 91.98 -23.66 69.85 -20.83 -16.2 6.7 -128.54 26.66 -155.89 75.45 -52.09 40.75 -23.07 6.06 -54.07 0 0zm225.76 -368.22l-58.28 38.77 -18.25 102.14 -19.1 106.82 -7.49 49.06 50.87 10.25 65.8 -111.87 14.57 -119.7 -28.12 -75.47 0 0zm138.38 -352.17l-50.43 35.5 14.6 94.42 102.26 -5.89 -14.18 -96.67 -52.25 -27.36 0 0zm-10.39 -127.13l18.39 51.79 42.05 -5.91 24.22 -72.18 -48.54 -21.78 -36.12 48.08 0 0zm55.49 -299.12l-38.43 47.53 29.46 68.44 60.66 -38.17 -20.26 -66.73 -31.43 -11.07 0 0zm-0.94 -489.98l-20.41 57.57 15.17 64.74 81.31 -18.86 18.01 -36.84 -94.08 -66.61 0 0zm-17.71 -375.27l-45.9 158.09 46.25 93.96 62.99 -15.54 20.26 -161.5 -37.16 -51.57 -46.44 -23.44 0 0zm52.68 -77.5l-16.31 37.26 53.12 33.55 37.3 -27.7 -45.97 -60.37 -28.14 17.26 0 0zm-181.63 44.37l0.26 42.39 45.69 44.47 38.38 -59.24 -19.22 -53.22 -65.11 25.6 0 0zm915.09 -2194.44l43.3 65.12 123.1 -65.37 -43.87 -20.14 -122.53 20.39 0 0zm-2710.63 -4400.14l114.31 208.23 39.46 -26.21 82.37 -197.04 68.48 -85.89 -39.72 -84.93 -138.79 -16.62 -106.8 106.7 -19.31 95.76zm-3776.53 1225.23l1.64 82.61 53.74 96.23 47.51 -8.69 -33.25 -107.34 -69.64 -62.81 0 0zm565.27 -142.14l42.7 106.19 109.52 46.49 29.48 -131.29 -25.09 -72.13 -133.01 -35.93 -80.32 35.59 -104.84 -39.43 -23.57 71.49 50.82 80.35 -43.39 33.98 -85.44 -105.68 -125.47 -13.07 -28.83 97.85 -8.93 104.88 41.41 81.51 4.58 83.26 107.76 55.27 107.24 12.48 13.72 -113.09 74.43 24.14 78.07 -84.86 67.3 28.81 57.55 -43.25 -37.47 -56.35 -96.56 -49.97 -62.53 -113.22 70.87 -4.02 0 0zm255.27 -540l-30.57 60.89 50.42 22.37 31.65 -51.56 -51.5 -31.7 0 0zm13.92 460.17l23.33 96.17 263.06 56.06 104.55 -125.25 -27.98 -118.45 -68.07 50.32 -106.64 -30.65 -39.31 43.86 -58.57 -11.81 -20.6 56.83 -69.77 -17.08 0 0zm-182.24 676.68l-24.8 123.06 143.58 -1.51 142.54 -41.41 -23.81 -108.49 -82.67 -28.85 -61.48 -27.62 -61.07 60.86 -32.29 23.96 0 0zm-104.69 -115.63l1.58 113.13 55.67 11.21 31.22 -94.29 -46.24 -58.12 -42.23 28.07 0 0zm-399.43 151.2l131.24 44.73 -7.76 68.58 -55.68 4.01 -53.79 -50.51 -14.01 -66.81 0 0z"/>
   <text data-id="fo_id=8;measures=v" x="15175.68" y="6479.4"  class="fil5 fnt0"></text>
   <text data-id="$2;80" x="15187.34" y="6199.02"  class="fil5 fnt0"></text>
   <text x="15195.66" y="5910.12"  class="fil1 fnt1">Дальневосточный</text>
  </g>
 </g>
</svg>
