<svg id="Слой_1" data-name="Слой 1" xmlns="http://www.w3.org/2000/svg" viewBox="0 0 647.63 97.86"><defs><style>.cls-1{fill:#00af5b;}</style></defs><path class="cls-1" d="M1173.92,206.46l19.46,49.84H1186L1180.5,241h-20.93l-5.67,15.26h-7l19.6-49.84Zm4.62,29.33-8.47-23-8.61,23Z" transform="translate(-891.47 -173)"/><path class="cls-1" d="M1202.9,220.18v5.6a14.14,14.14,0,0,1,12.32-6.58q6.38,0,9.21,3.33t2.83,9.76v24h-6V235a40.13,40.13,0,0,0-.17-4.16,12.27,12.27,0,0,0-.88-3.22,4.54,4.54,0,0,0-2.38-2.49,10.54,10.54,0,0,0-4.34-.77q-10.29,0-10.29,13v18.9h-6V220.18Z" transform="translate(-891.47 -173)"/><path class="cls-1" d="M1266.6,220.18l-14.35,13.09,15.4,23h-7.56l-12.39-18.9-5.67,5.25V256.3h-5.81V206.46H1242v29.47l16.59-15.75Z" transform="translate(-891.47 -173)"/><path class="cls-1" d="M1303.42,244.89q-2.73,12.6-15.75,12.6-8,0-12.49-5t-4.52-13.79q0-8.74,4.66-14.17a15.22,15.22,0,0,1,12.14-5.43q8.32,0,12.36,5.64t4,14.24v.84h-27.16l-.07.42q0,5.74,3,9a10.65,10.65,0,0,0,8.26,3.29,9.7,9.7,0,0,0,6.2-1.82,11.78,11.78,0,0,0,3.53-5.88Zm-5.74-9.87a12.92,12.92,0,0,0-3.15-8.08,9.42,9.42,0,0,0-7.21-2.91,9.66,9.66,0,0,0-7.21,2.94,13.18,13.18,0,0,0-3.43,8.05Z" transform="translate(-891.47 -173)"/><path class="cls-1" d="M1340,220.18l-15.47,40.74c-.61,1.63-1.13,2.91-1.57,3.82a20.58,20.58,0,0,1-1.89,3,7.26,7.26,0,0,1-2.94,2.38,10.21,10.21,0,0,1-4,.73,19.81,19.81,0,0,1-4.41-.63v-5.32a15.3,15.3,0,0,0,3.85.77,4.32,4.32,0,0,0,4.2-3l2.8-6.58-14.35-35.91h6.72L1323.65,249l10.15-28.77Z" transform="translate(-891.47 -173)"/><path class="cls-1" d="M1386.58,206.46,1406,256.3h-7.35L1393.16,241h-20.93l-5.67,15.26h-7l19.6-49.84Zm4.62,29.33-8.47-23-8.61,23Z" transform="translate(-891.47 -173)"/><path class="cls-1" d="M1446.29,221.09h-6.37q-1.05-10.16-12.39-10.15c-3.59,0-6.37.73-8.33,2.17a7.14,7.14,0,0,0-2.94,6.09,6.58,6.58,0,0,0,.42,2.45,4.52,4.52,0,0,0,1.44,1.86,19.22,19.22,0,0,0,1.92,1.36,12.17,12.17,0,0,0,2.87,1.12q2,.56,3.15.81c.79.16,2,.43,3.71.8,2,.42,3.76.81,5.11,1.16a36,36,0,0,1,4.83,1.71,16.31,16.31,0,0,1,4.44,2.63,12.56,12.56,0,0,1,2.88,3.81,11.69,11.69,0,0,1,1.22,5.39,13.3,13.3,0,0,1-2.94,8.79,15.55,15.55,0,0,1-7.14,4.93,29.39,29.39,0,0,1-9.31,1.4q-9.37,0-15-4.44t-5.64-13.13h6.37q.21,6.38,4.27,9.28t10.57,2.9a17,17,0,0,0,8.75-2.13q3.64-2.15,3.64-7a6.52,6.52,0,0,0-4.06-6.4,28.09,28.09,0,0,0-4.2-1.65q-2.1-.63-5.53-1.4a3.48,3.48,0,0,1-.7-.14,69.12,69.12,0,0,1-10.08-2.8q-7.27-3.15-7.28-10.85,0-7.14,5.29-10.67a22.41,22.41,0,0,1,12.77-3.54q8.19,0,13.09,3.92T1446.29,221.09Z" transform="translate(-891.47 -173)"/><path class="cls-1" d="M1477.3,206.46l19.46,49.84h-7.35L1483.88,241H1463l-5.67,15.26h-7l19.6-49.84Zm4.62,29.33-8.47-23-8.61,23Z" transform="translate(-891.47 -173)"/><path class="cls-1" d="M1502,206.46h20.51q7.63,0,12.11,3.47t4.48,10.88q0,15-17,15.05h-13.51V256.3H1502Zm6.58,5.67v18.2h12.67q5.33,0,8.29-2t3-7.11a10.62,10.62,0,0,0-1-4.76,6,6,0,0,0-2.76-2.8,12.86,12.86,0,0,0-3.78-1.22,30,30,0,0,0-4.69-.32Z" transform="translate(-891.47 -173)"/><rect class="cls-1" x="214.53" width="4" height="84"/><rect class="cls-1" x="91.53" width="16" height="84"/><polygon class="cls-1" points="91.53 41.5 134.5 0 158.5 0 91.53 64.68 91.53 41.5"/><polygon class="cls-1" points="24.29 84 0 84 84.05 0 108.34 0 24.29 84"/><polygon class="cls-1" points="151.18 84 173.53 84 123.88 34 101.53 34 151.18 84"/><polygon class="cls-1" points="24.52 60 68.11 60 83.81 44 40.22 44 24.52 60"/></svg>